<svg width="34" height="26" viewBox="0 0 34 26" fill="none" xmlns="http://www.w3.org/2000/svg">
<g clip-path="url(#clip0_164_1566)">
<path d="M29.0703 4.8457H21.585V6.66211H29.0703V4.8457ZM25.3789 11.0859C24.5 11.0859 23.7871 11.3423 23.2402 11.855C22.6934 12.3677 22.3906 13.0635 22.332 13.9424H28.3086C28.1328 12.0381 27.1562 11.0859 25.3789 11.0859ZM25.6133 19.6553C26.2285 19.6553 26.8242 19.499 27.4004 19.1865C27.9766 18.874 28.3477 18.4492 28.5137 17.9121H31.751C30.7744 20.9102 28.6895 22.4092 25.4961 22.4092C23.4062 22.4092 21.7436 21.7647 20.5083 20.4756C19.2729 19.1865 18.6553 17.4922 18.6553 15.3926C18.6553 13.3613 19.2925 11.6743 20.5669 10.3315C21.8413 8.98877 23.4844 8.31738 25.4961 8.31738C26.8438 8.31738 28.0181 8.64941 29.0191 9.31348C30.02 9.97754 30.7671 10.8516 31.2602 11.9355C31.7534 13.0195 32 14.2305 32 15.5684C32 15.7344 31.9902 15.9639 31.9707 16.2568H22.332C22.332 17.3408 22.6128 18.1782 23.1743 18.7691C23.7358 19.3599 24.5488 19.6553 25.6133 19.6553ZM6.05762 18.9229H10.3936C12.3955 18.9229 13.3965 18.1074 13.3965 16.4766C13.3965 14.7188 12.4248 13.8398 10.4814 13.8398H6.05762V18.9229ZM6.05762 11.0566H10.1738C10.9355 11.0566 11.5386 10.8784 11.9829 10.522C12.4272 10.1655 12.6494 9.61133 12.6494 8.85938C12.6494 7.45313 11.7217 6.75 9.86621 6.75H6.05762V11.0566ZM2 3.60059H10.7012C11.5508 3.60059 12.3076 3.66895 12.9717 3.80566C13.6357 3.94238 14.2534 4.17432 14.8247 4.50147C15.396 4.82862 15.8355 5.2998 16.1431 5.91504C16.4507 6.53027 16.6045 7.28223 16.6045 8.1709C16.6045 9.93848 15.7646 11.2227 14.085 12.0234C15.1982 12.3359 16.0381 12.8975 16.6045 13.708C17.1709 14.5186 17.4541 15.5147 17.4541 16.6963C17.4541 17.4287 17.3345 18.0952 17.0952 18.6958C16.856 19.2964 16.5337 19.8018 16.1284 20.2119C15.7231 20.6221 15.2422 20.9688 14.6855 21.252C14.1289 21.5352 13.5381 21.7402 12.9131 21.8672C12.2881 21.9941 11.6338 22.0576 10.9502 22.0576H2V3.60059Z" fill="white"/>
</g>
<defs>
<clipPath id="clip0_164_1566">
<rect width="30" height="20" fill="white" transform="translate(2 3)"/>
</clipPath>
</defs>
</svg>
