<svg width="173" height="69" viewBox="0 0 173 69" fill="none" xmlns="http://www.w3.org/2000/svg">
<path d="M41.9246 32.3916C41.1341 32.3916 40.4813 32.6655 39.9657 33.2129C39.4506 33.7606 39.1968 34.5047 39.2059 35.4442H44.6162C44.5901 34.447 44.3197 33.6888 43.8046 33.1697C43.2895 32.6505 42.6624 32.3916 41.9246 32.3916ZM29.3251 35.9098C28.8303 35.738 27.7586 35.6529 26.1075 35.6529H23.1782V40.4592H26.5368C27.8432 40.4592 28.6727 40.4227 29.0244 40.3489C29.564 40.2509 30.0028 40.0115 30.3425 39.6314C30.6809 39.2512 30.8505 38.7421 30.8505 38.1051C30.8505 37.5652 30.7203 37.1074 30.4586 36.7311C30.1969 36.3547 29.8195 36.082 29.3251 35.9098Z" fill="black"/>
<path d="M33.9853 10.5C20.7385 10.5 10 21.2455 10 34.5C10 47.7545 20.7389 58.5 33.9853 58.5C47.2326 58.5 57.9724 47.7541 57.9724 34.5C57.9719 21.2455 47.2326 10.5 33.9853 10.5ZM38.241 26.2805H45.4895V28.0346H38.241V26.2805ZM34.0314 40.6625C33.6515 41.4347 33.1322 42.0527 32.4744 42.5145C31.8167 42.9756 31.0058 43.2602 30.042 43.3665C29.4369 43.432 27.9786 43.4727 25.666 43.4897H19.5511V25.5115H26.7328C28.1545 25.5115 29.2146 25.5709 29.913 25.6895C30.6114 25.8082 31.2364 26.0551 31.788 26.4311C32.3388 26.8071 32.7992 27.308 33.1666 27.9333C33.5341 28.5587 33.7183 29.2596 33.7183 30.0361C33.7183 30.878 33.4914 31.6512 33.0377 32.3541C32.5839 33.0571 31.9693 33.5846 31.1933 33.936C32.2878 34.2552 33.1301 34.7992 33.7183 35.5665C34.3064 36.3359 34.6004 37.2385 34.6004 38.2767C34.6008 39.0947 34.4113 39.8898 34.0314 40.6625ZM40.0174 39.94C40.5756 40.5081 41.2711 40.7919 42.1039 40.7919C42.6709 40.7919 43.1474 40.6446 43.5344 40.3504C43.9201 40.0562 44.2125 39.835 44.4099 39.181L48.1256 39.159C48.1011 40.3624 46.8208 41.7227 45.82 42.3801C44.8196 43.0382 43.568 43.3673 42.0645 43.3673C39.6864 43.3673 37.9254 42.6282 36.784 41.148C35.8815 39.9624 35.4311 38.466 35.4311 36.6596C35.4311 34.5012 36.0234 32.8114 37.2083 31.5893C38.3932 30.3672 39.8921 29.7559 41.7041 29.7559C43.7397 29.7559 45.3451 30.3958 46.5222 31.6748C47.6984 32.9546 48.2603 34.9146 48.2093 37.5551H39.1418C39.168 38.5759 39.4595 39.371 40.0174 39.94Z" fill="black"/>
<path d="M28.1913 32.5998C28.8126 32.5259 29.3003 32.3118 29.6557 31.9557C30.0112 31.6005 30.1887 31.1324 30.1887 30.5514C30.1887 29.9958 30.0356 29.5443 29.7296 29.1961C29.4235 28.8492 28.9673 28.6384 28.363 28.5649C28.0034 28.5238 26.9699 28.5039 25.262 28.5039H23.1787V32.6612H25.556C26.9699 32.6612 27.8487 32.6408 28.1913 32.5998Z" fill="black"/>
<path d="M76.0933 44V27.1602H80.7222C82.8862 27.1602 84.4214 27.5 85.3276 28.1797C86.2183 28.8438 86.6636 29.9766 86.6636 31.5781C86.6636 32.1719 86.5503 32.6797 86.3237 33.1016C86.105 33.5234 85.8315 33.875 85.5034 34.1562C85.1597 34.4531 84.812 34.6562 84.4604 34.7656C84.1167 34.875 83.8511 34.9375 83.6636 34.9531C84.3979 35.0156 85.0308 35.1992 85.562 35.5039C85.7964 35.6367 86.0308 35.8047 86.2651 36.0078C86.4995 36.2109 86.7026 36.4531 86.8745 36.7344C87.0542 37.0234 87.1948 37.3633 87.2964 37.7539C87.4058 38.1445 87.4604 38.6055 87.4604 39.1367C87.4604 40.8164 86.9722 42.0469 85.9956 42.8281C85.0269 43.6094 83.5659 44 81.6128 44H76.0933ZM78.2144 34.332H80.9448C81.6167 34.332 82.1831 34.2695 82.644 34.1445C83.105 34.0117 83.4761 33.8281 83.7573 33.5938C84.2886 33.1484 84.5542 32.4453 84.5542 31.4844C84.5542 30.9375 84.4761 30.5039 84.3198 30.1836C84.1714 29.8555 83.9331 29.5938 83.605 29.3984C82.9644 29.0391 81.9058 28.8594 80.4292 28.8594H78.2144V34.332ZM78.2144 42.3125H81.0503C81.7612 42.3125 82.3862 42.2695 82.9253 42.1836C83.4722 42.0898 83.9253 41.9336 84.2847 41.7148C84.644 41.4883 84.9136 41.1719 85.0933 40.7656C85.2808 40.3516 85.3745 39.8008 85.3745 39.1133C85.3745 38.457 85.2886 37.9219 85.1167 37.5078C84.9448 37.0859 84.6792 36.75 84.3198 36.5C83.9604 36.25 83.5073 36.0742 82.9604 35.9727C82.4136 35.8711 81.7651 35.8203 81.0151 35.8203H78.2144V42.3125ZM98.8745 43.6484C98.6011 43.75 98.2886 43.8438 97.937 43.9297C97.6401 44 97.2925 44.0625 96.894 44.1172C96.4956 44.1797 96.0581 44.2109 95.5815 44.2109C91.7847 44.2109 89.8862 42.1836 89.8862 38.1289C89.8862 36.9961 90.019 36.0391 90.2847 35.2578C90.5503 34.4688 90.9175 33.8164 91.3862 33.3008C91.855 32.7852 92.4097 32.4023 93.0503 32.1523C93.6909 31.9023 94.3823 31.7773 95.1245 31.7773C96.0933 31.7773 96.9058 31.9727 97.562 32.3633C98.2183 32.7539 98.7144 33.2695 99.0503 33.9102C99.394 34.543 99.5737 35.2227 99.5894 35.9492C99.5894 36.1602 99.5776 36.4258 99.5542 36.7461C99.5386 37.0586 99.5151 37.3555 99.4839 37.6367C99.4604 37.9102 99.4331 38.0938 99.4019 38.1875H92.1245V38.6094C92.1245 39.6172 92.2769 40.4102 92.5815 40.9883C92.8862 41.5664 93.3081 41.9766 93.8472 42.2188C94.394 42.4531 95.0229 42.5703 95.7339 42.5703C96.1792 42.5703 96.6011 42.5469 96.9995 42.5C97.4058 42.4453 97.7651 42.3867 98.0776 42.3242C98.4448 42.2539 98.7847 42.1719 99.0972 42.0781L98.8745 43.6484ZM95.1714 33.3828C94.8042 33.3828 94.4487 33.4414 94.105 33.5586C93.769 33.668 93.4644 33.8555 93.1909 34.1211C92.9175 34.3867 92.687 34.7383 92.4995 35.1758C92.3198 35.6055 92.2065 36.1719 92.1597 36.875H97.7026C97.7026 36.7266 97.7065 36.6289 97.7144 36.582C97.7222 36.543 97.7261 36.4805 97.7261 36.3945V36.2188C97.6948 35.2266 97.4409 34.5078 96.9644 34.0625C96.4878 33.6094 95.8901 33.3828 95.1714 33.3828ZM102.425 44V27.3711L104.593 27.1602V33.1602C105.226 32.6602 105.855 32.3047 106.48 32.0938C107.113 31.8828 107.832 31.7773 108.636 31.7773C109.988 31.7773 110.957 32.1914 111.542 33.0195C112.128 33.8477 112.421 35.2578 112.421 37.25V44H110.253V37.4141C110.253 36.3594 110.171 35.543 110.007 34.9648C109.843 34.3867 109.601 33.9883 109.281 33.7695C108.96 33.543 108.562 33.4297 108.085 33.4297C107.601 33.4297 107.128 33.5195 106.667 33.6992C106.214 33.8789 105.804 34.0703 105.437 34.2734C105.078 34.4766 104.796 34.6133 104.593 34.6836V44H102.425ZM124.714 41.4102C124.714 41.8633 124.761 42.1445 124.855 42.2539C124.949 42.3555 125.136 42.4062 125.417 42.4062C125.503 42.4062 125.593 42.4062 125.687 42.4062C125.789 42.3984 125.878 42.3945 125.957 42.3945L125.792 43.9766C125.792 43.9766 125.707 43.9805 125.535 43.9883C125.371 43.9961 125.187 44.0039 124.984 44.0117C124.781 44.0273 124.617 44.0352 124.492 44.0352C124.046 44.0352 123.695 43.9492 123.437 43.7773C123.179 43.5977 122.996 43.3984 122.886 43.1797C122.777 42.9531 122.722 42.7695 122.722 42.6289C122.558 42.8555 122.312 43.0938 121.984 43.3438C121.656 43.5859 121.214 43.793 120.66 43.9648C120.105 44.1289 119.402 44.2109 118.55 44.2109C117.511 44.2109 116.667 43.9023 116.019 43.2852C115.378 42.6602 115.058 41.8242 115.058 40.7773C115.058 39.8398 115.316 39.125 115.832 38.6328C116.347 38.1406 117.015 37.8047 117.835 37.625C118.656 37.4375 119.519 37.3438 120.425 37.3438C120.699 37.3438 120.964 37.3555 121.222 37.3789C121.48 37.3945 121.71 37.4102 121.914 37.4258L122.558 37.5195V36.1953C122.558 35.3594 122.472 34.7383 122.3 34.332C122.128 33.918 121.843 33.6445 121.445 33.5117C121.054 33.3789 120.523 33.3125 119.851 33.3125C119.07 33.3125 118.347 33.3945 117.683 33.5586C117.027 33.7148 116.468 33.8828 116.007 34.0625L116.242 32.3281C116.609 32.1719 117.093 32.0234 117.695 31.8828C118.296 31.7344 119.07 31.6602 120.015 31.6602C121.281 31.6602 122.253 31.8281 122.933 32.1641C123.613 32.5 124.078 33.0469 124.328 33.8047C124.585 34.5625 124.714 35.5742 124.714 36.8398V41.4102ZM120.777 38.6914C120.433 38.6914 120.046 38.7109 119.617 38.75C119.187 38.7812 118.777 38.8672 118.386 39.0078C117.996 39.1406 117.671 39.3555 117.414 39.6523C117.164 39.9414 117.039 40.3438 117.039 40.8594C117.039 41.4609 117.23 41.9062 117.613 42.1953C118.003 42.4844 118.554 42.6289 119.265 42.6289C120.062 42.6289 120.73 42.5195 121.269 42.3008C121.816 42.0742 122.246 41.8438 122.558 41.6094V38.7617L121.984 38.7266L120.777 38.6914ZM128.605 44V31.9883L130.117 31.8477L130.433 33.1953C130.621 33.0547 130.851 32.9023 131.125 32.7383C131.406 32.5664 131.726 32.4102 132.085 32.2695C132.437 32.1289 132.828 32.0117 133.257 31.918C133.695 31.8242 134.16 31.7773 134.652 31.7773C135.269 31.7773 135.816 31.8633 136.292 32.0352C136.777 32.207 137.187 32.4883 137.523 32.8789C137.859 33.2617 138.113 33.7695 138.285 34.4023C138.464 35.0273 138.554 35.7891 138.554 36.6875V44H136.386V37.1562C136.386 36.5156 136.351 35.9609 136.281 35.4922C136.21 35.0234 136.093 34.6367 135.929 34.332C135.609 33.7383 135.042 33.4414 134.23 33.4414C133.792 33.4414 133.367 33.5 132.953 33.6172C132.546 33.7344 132.179 33.8594 131.851 33.9922C131.664 34.0703 131.48 34.1562 131.3 34.25C131.121 34.3359 130.945 34.4297 130.773 34.5312V44H128.605ZM146.722 44.2109C146.074 44.2109 145.441 44.1094 144.824 43.9062C144.207 43.7031 143.656 43.3633 143.171 42.8867C142.679 42.4023 142.285 41.7617 141.988 40.9648C141.691 40.168 141.542 39.2031 141.542 38.0703C141.542 37.2734 141.609 36.5625 141.742 35.9375C141.882 35.3047 142.074 34.7539 142.316 34.2852C142.55 33.8086 142.832 33.4141 143.16 33.1016C143.66 32.6172 144.207 32.2773 144.8 32.082C145.402 31.8789 146.023 31.7773 146.664 31.7773C147.179 31.7773 147.648 31.8125 148.07 31.8828C148.492 31.9453 148.855 32.0195 149.16 32.1055C149.535 32.1992 149.855 32.3086 150.121 32.4336L150.296 34.0156C150.148 33.9609 149.988 33.9102 149.816 33.8633C149.652 33.8086 149.48 33.7617 149.3 33.7227C148.996 33.6523 148.644 33.5859 148.246 33.5234C147.847 33.4609 147.425 33.4297 146.98 33.4297C145.902 33.4297 145.105 33.7852 144.589 34.4961C144.324 34.8711 144.117 35.3516 143.968 35.9375C143.828 36.5234 143.757 37.2227 143.757 38.0352C143.757 39.5898 144.035 40.7461 144.589 41.5039C144.863 41.8789 145.199 42.1523 145.597 42.3242C145.996 42.4883 146.457 42.5703 146.98 42.5703C147.425 42.5703 147.847 42.543 148.246 42.4883C148.652 42.4258 149.007 42.3594 149.312 42.2891C149.664 42.2109 149.996 42.1172 150.308 42.0078L150.121 43.5664C149.863 43.6836 149.546 43.793 149.171 43.8945C148.875 43.9805 148.515 44.0547 148.093 44.1172C147.679 44.1797 147.222 44.2109 146.722 44.2109ZM160.984 43.6484C160.71 43.75 160.398 43.8438 160.046 43.9297C159.75 44 159.402 44.0625 159.003 44.1172C158.605 44.1797 158.167 44.2109 157.691 44.2109C153.894 44.2109 151.996 42.1836 151.996 38.1289C151.996 36.9961 152.128 36.0391 152.394 35.2578C152.66 34.4688 153.027 33.8164 153.496 33.3008C153.964 32.7852 154.519 32.4023 155.16 32.1523C155.8 31.9023 156.492 31.7773 157.234 31.7773C158.203 31.7773 159.015 31.9727 159.671 32.3633C160.328 32.7539 160.824 33.2695 161.16 33.9102C161.503 34.543 161.683 35.2227 161.699 35.9492C161.699 36.1602 161.687 36.4258 161.664 36.7461C161.648 37.0586 161.625 37.3555 161.593 37.6367C161.57 37.9102 161.542 38.0938 161.511 38.1875H154.234V38.6094C154.234 39.6172 154.386 40.4102 154.691 40.9883C154.996 41.5664 155.417 41.9766 155.957 42.2188C156.503 42.4531 157.132 42.5703 157.843 42.5703C158.289 42.5703 158.71 42.5469 159.109 42.5C159.515 42.4453 159.875 42.3867 160.187 42.3242C160.554 42.2539 160.894 42.1719 161.207 42.0781L160.984 43.6484ZM157.281 33.3828C156.914 33.3828 156.558 33.4414 156.214 33.5586C155.878 33.668 155.574 33.8555 155.3 34.1211C155.027 34.3867 154.796 34.7383 154.609 35.1758C154.429 35.6055 154.316 36.1719 154.269 36.875H159.812C159.812 36.7266 159.816 36.6289 159.824 36.582C159.832 36.543 159.835 36.4805 159.835 36.3945V36.2188C159.804 35.2266 159.55 34.5078 159.074 34.0625C158.597 33.6094 158 33.3828 157.281 33.3828Z" fill="black"/>
<path d="M73.9722 45.4648H151.14V46.0508H73.9722V45.4648ZM150.753 45.4648H162.671V46.0508H150.753V45.4648Z" fill="black"/>
<a href="https://www.behance.net/jayanmanavalan1">
<rect fill="black" fill-opacity="0" y="-0.197266" width="88.6992" height="31.3945"/>
</a>
</svg>
