<svg width="24" height="24" viewBox="0 0 24 24" fill="none" xmlns="http://www.w3.org/2000/svg">
<path d="M22.8 14.3347V22.3202H18.1704V14.8694C18.1704 12.9976 17.5008 11.7203 15.8249 11.7203C14.5457 11.7203 13.7844 12.5812 13.4496 13.4138C13.3275 13.7116 13.296 14.1259 13.296 14.5427V22.3202H8.66497C8.66497 22.3202 8.72737 9.70098 8.66497 8.39346H13.2958V10.3675C13.2864 10.3823 13.2742 10.3982 13.2653 10.4126H13.2958V10.3675C13.9109 9.41994 15.0096 8.06634 17.4689 8.06634C20.5159 8.06634 22.8 10.0569 22.8 14.3347ZM3.82057 1.68018C2.23633 1.68018 1.20001 2.71938 1.20001 4.08594C1.20001 5.42274 2.20633 6.49338 3.75913 6.49338H3.79009C5.40505 6.49338 6.40945 5.42298 6.40945 4.08594C6.37897 2.71938 5.40505 1.68018 3.82057 1.68018ZM1.47505 22.3202H6.10441V8.39346H1.47505V22.3202Z" fill="white"/>
</svg>
