<svg width="172" height="69" viewBox="0 0 172 69" fill="none" xmlns="http://www.w3.org/2000/svg">
<g clip-path="url(#clip0_164_917)">
<path d="M34 10.5C20.7451 10.5 10 21.2451 10 34.5C10 47.7548 20.7451 58.4999 34 58.4999C47.2548 58.4999 58 47.7548 58 34.5C57.9999 21.2451 47.2547 10.5 34 10.5ZM27.5967 46.1028H22.3273V29.0788H27.5967V46.1028ZM24.9369 26.8494C23.216 26.8494 21.8208 25.4429 21.8208 23.7081C21.8208 21.9732 23.2161 20.5668 24.9369 20.5668C26.6576 20.5668 28.0528 21.9732 28.0528 23.7081C28.0529 25.443 26.6577 26.8494 24.9369 26.8494ZM47.3439 46.1028H42.1V37.1666C42.1 34.7157 41.169 33.3475 39.231 33.3475C37.1218 33.3475 36.0199 34.7725 36.0199 37.1666V46.1028H30.9659V29.0788H36.0199V31.3716C36.0199 31.3716 37.5402 28.5595 41.15 28.5595C44.7599 28.5595 47.344 30.7637 47.344 35.3235L47.3439 46.1028Z" fill="url(#paint0_linear_164_917)"/>
</g>
<path d="M76.1211 44V27.1602H78.2891V42.3359H85.1797L84.9805 44H76.1211ZM87.3008 29.6328V27.5H89.5508V29.6328H87.3008ZM87.3594 44V31.918H89.4219V44H87.3594ZM93.125 44V31.9883L94.6367 31.8477L94.9531 33.1953C95.1406 33.0547 95.3711 32.9023 95.6445 32.7383C95.9258 32.5664 96.2461 32.4102 96.6055 32.2695C96.957 32.1289 97.3477 32.0117 97.7773 31.918C98.2148 31.8242 98.6797 31.7773 99.1719 31.7773C99.7891 31.7773 100.336 31.8633 100.812 32.0352C101.297 32.207 101.707 32.4883 102.043 32.8789C102.379 33.2617 102.633 33.7695 102.805 34.4023C102.984 35.0273 103.074 35.7891 103.074 36.6875V44H100.906V37.1562C100.906 36.5156 100.871 35.9609 100.801 35.4922C100.73 35.0234 100.613 34.6367 100.449 34.332C100.129 33.7383 99.5625 33.4414 98.75 33.4414C98.3125 33.4414 97.8867 33.5 97.4727 33.6172C97.0664 33.7344 96.6992 33.8594 96.3711 33.9922C96.1836 34.0703 96 34.1562 95.8203 34.25C95.6406 34.3359 95.4648 34.4297 95.293 34.5312V44H93.125ZM106.672 44V27.3711L108.84 27.1602V37.3906L114.336 31.9883H116.621V32.4453L111.441 37.4492L116.902 43.5898V44H114.676L109.895 38.5156L108.84 39.4883V44H106.672ZM127.027 43.6484C126.754 43.75 126.441 43.8438 126.09 43.9297C125.793 44 125.445 44.0625 125.047 44.1172C124.648 44.1797 124.211 44.2109 123.734 44.2109C119.938 44.2109 118.039 42.1836 118.039 38.1289C118.039 36.9961 118.172 36.0391 118.438 35.2578C118.703 34.4688 119.07 33.8164 119.539 33.3008C120.008 32.7852 120.562 32.4023 121.203 32.1523C121.844 31.9023 122.535 31.7773 123.277 31.7773C124.246 31.7773 125.059 31.9727 125.715 32.3633C126.371 32.7539 126.867 33.2695 127.203 33.9102C127.547 34.543 127.727 35.2227 127.742 35.9492C127.742 36.1602 127.73 36.4258 127.707 36.7461C127.691 37.0586 127.668 37.3555 127.637 37.6367C127.613 37.9102 127.586 38.0938 127.555 38.1875H120.277V38.6094C120.277 39.6172 120.43 40.4102 120.734 40.9883C121.039 41.5664 121.461 41.9766 122 42.2188C122.547 42.4531 123.176 42.5703 123.887 42.5703C124.332 42.5703 124.754 42.5469 125.152 42.5C125.559 42.4453 125.918 42.3867 126.23 42.3242C126.598 42.2539 126.938 42.1719 127.25 42.0781L127.027 43.6484ZM123.324 33.3828C122.957 33.3828 122.602 33.4414 122.258 33.5586C121.922 33.668 121.617 33.8555 121.344 34.1211C121.07 34.3867 120.84 34.7383 120.652 35.1758C120.473 35.6055 120.359 36.1719 120.312 36.875H125.855C125.855 36.7266 125.859 36.6289 125.867 36.582C125.875 36.543 125.879 36.4805 125.879 36.3945V36.2188C125.848 35.2266 125.594 34.5078 125.117 34.0625C124.641 33.6094 124.043 33.3828 123.324 33.3828ZM134.727 44.2109C134.148 44.2109 133.574 44.1055 133.004 43.8945C132.434 43.6836 131.926 43.3359 131.48 42.8516C131.027 42.3672 130.66 41.7344 130.379 40.9531C130.105 40.1641 129.969 39.1992 129.969 38.0586C129.969 36.5742 130.176 35.3711 130.59 34.4492C131.012 33.5273 131.57 32.8516 132.266 32.4219C132.961 31.9922 133.73 31.7773 134.574 31.7773C135.074 31.7773 135.535 31.8281 135.957 31.9297C136.379 32.0234 136.746 32.125 137.059 32.2344C137.426 32.3672 137.758 32.5156 138.055 32.6797V27.3828L140.199 27.1602V44L138.523 44.0938L138.148 42.8047C137.914 43.0703 137.633 43.3047 137.305 43.5078C137.023 43.6875 136.668 43.8516 136.238 44C135.816 44.1406 135.312 44.2109 134.727 44.2109ZM135.066 42.5703C135.504 42.5703 135.902 42.5117 136.262 42.3945C136.629 42.2773 136.945 42.1484 137.211 42.0078C137.539 41.8359 137.82 41.6445 138.055 41.4336V34.2383C137.773 34.0977 137.465 33.9648 137.129 33.8398C136.84 33.7383 136.508 33.6484 136.133 33.5703C135.758 33.4844 135.352 33.4414 134.914 33.4414C133.977 33.4414 133.277 33.8477 132.816 34.6602C132.355 35.4727 132.125 36.6211 132.125 38.1055C132.125 38.918 132.203 39.6094 132.359 40.1797C132.523 40.7422 132.738 41.1992 133.004 41.5508C133.277 41.9102 133.59 42.1719 133.941 42.3359C134.293 42.4922 134.668 42.5703 135.066 42.5703ZM144.113 44V27.1602H146.258V44H144.113ZM150.195 44V31.9883L151.707 31.8477L152.023 33.1953C152.211 33.0547 152.441 32.9023 152.715 32.7383C152.996 32.5664 153.316 32.4102 153.676 32.2695C154.027 32.1289 154.418 32.0117 154.848 31.918C155.285 31.8242 155.75 31.7773 156.242 31.7773C156.859 31.7773 157.406 31.8633 157.883 32.0352C158.367 32.207 158.777 32.4883 159.113 32.8789C159.449 33.2617 159.703 33.7695 159.875 34.4023C160.055 35.0273 160.145 35.7891 160.145 36.6875V44H157.977V37.1562C157.977 36.5156 157.941 35.9609 157.871 35.4922C157.801 35.0234 157.684 34.6367 157.52 34.332C157.199 33.7383 156.633 33.4414 155.82 33.4414C155.383 33.4414 154.957 33.5 154.543 33.6172C154.137 33.7344 153.77 33.8594 153.441 33.9922C153.254 34.0703 153.07 34.1562 152.891 34.25C152.711 34.3359 152.535 34.4297 152.363 34.5312V44H150.195Z" fill="#0978B5"/>
<path d="M74 45.4648H161.891V46.0508H74V45.4648Z" fill="#0978B5"/>
<a href="https://www.linkedin.com/in/jayan-m-847186219/">
<rect fill="black" fill-opacity="0" y="-0.197266" width="87.8906" height="31.3945"/>
</a>
<defs>
<linearGradient id="paint0_linear_164_917" x1="17.0294" y1="17.5294" x2="50.9705" y2="51.4705" gradientUnits="userSpaceOnUse">
<stop stop-color="#2489BE"/>
<stop offset="1" stop-color="#0575B3"/>
</linearGradient>
<clipPath id="clip0_164_917">
<rect width="48" height="48" fill="white" transform="translate(10 10.5)"/>
</clipPath>
</defs>
</svg>
