<svg width="1136" height="383" viewBox="0 0 1136 383" fill="none" xmlns="http://www.w3.org/2000/svg">
<path d="M157.217 56L154.694 43.3701H156.391L158.184 53.1436L158.5 54.9102L158.834 53.1699L160.979 43.9062H163.369L165.522 53.1787L165.865 54.9102L166.182 53.1436L167.957 43.3701H169.618L167.131 56H164.705L162.736 47.7119L162.165 44.9082L161.611 47.7207L159.643 56H157.217ZM174.742 56.1582C173.84 56.1582 173.093 55.9619 172.501 55.5693C171.909 55.1768 171.47 54.6318 171.183 53.9346C170.896 53.2373 170.752 52.4316 170.752 51.5176C170.752 50.0938 171.077 48.957 171.728 48.1074C172.384 47.2578 173.389 46.833 174.742 46.833C176.09 46.833 177.089 47.2578 177.739 48.1074C178.396 48.957 178.724 50.0938 178.724 51.5176C178.724 52.4316 178.58 53.2373 178.293 53.9346C178.006 54.6318 177.566 55.1768 176.975 55.5693C176.389 55.9619 175.645 56.1582 174.742 56.1582ZM174.742 54.9277C175.182 54.9277 175.551 54.8457 175.85 54.6816C176.154 54.5176 176.397 54.2832 176.579 53.9785C176.767 53.6738 176.898 53.3105 176.975 52.8887C177.051 52.4609 177.089 51.998 177.089 51.5C177.089 50.416 176.916 49.5752 176.57 48.9775C176.225 48.3799 175.615 48.0811 174.742 48.0811C174.303 48.0811 173.934 48.1572 173.635 48.3096C173.342 48.4561 173.102 48.6758 172.914 48.9688C172.732 49.2559 172.601 49.6133 172.519 50.041C172.437 50.4629 172.396 50.9492 172.396 51.5C172.396 51.998 172.437 52.4609 172.519 52.8887C172.601 53.3105 172.732 53.6738 172.914 53.9785C173.102 54.2832 173.342 54.5176 173.635 54.6816C173.934 54.8457 174.303 54.9277 174.742 54.9277ZM182.485 56L180.227 46.9912H181.984L183.628 55.1826L185.096 47.1143H187.161L188.901 55.1826L190.325 46.9912H192.092L189.991 56H187.847L186.124 48.292L184.647 56H182.485ZM195.546 56L193.287 46.9912H195.045L196.688 55.1826L198.156 47.1143H200.222L201.962 55.1826L203.386 46.9912H205.152L203.052 56H200.907L199.185 48.292L197.708 56H195.546ZM208.606 56L206.348 46.9912H208.105L209.749 55.1826L211.217 47.1143H213.282L215.022 55.1826L216.446 46.9912H218.213L216.112 56H213.968L212.245 48.292L210.769 56H208.606ZM221.667 56L219.408 46.9912H221.166L222.81 55.1826L224.277 47.1143H226.343L228.083 55.1826L229.507 46.9912H231.273L229.173 56H227.028L225.306 48.292L223.829 56H221.667Z" fill="#757575"/>
<path d="M170.217 142L167.694 129.37H169.391L171.184 139.144L171.5 140.91L171.834 139.17L173.979 129.906H176.369L178.522 139.179L178.865 140.91L179.182 139.144L180.957 129.37H182.618L180.131 142H177.705L175.736 133.712L175.165 130.908L174.611 133.721L172.643 142H170.217ZM187.742 142.158C186.84 142.158 186.093 141.962 185.501 141.569C184.909 141.177 184.47 140.632 184.183 139.935C183.896 139.237 183.752 138.432 183.752 137.518C183.752 136.094 184.077 134.957 184.728 134.107C185.384 133.258 186.389 132.833 187.742 132.833C189.09 132.833 190.089 133.258 190.739 134.107C191.396 134.957 191.724 136.094 191.724 137.518C191.724 138.432 191.58 139.237 191.293 139.935C191.006 140.632 190.566 141.177 189.975 141.569C189.389 141.962 188.645 142.158 187.742 142.158ZM187.742 140.928C188.182 140.928 188.551 140.846 188.85 140.682C189.154 140.518 189.397 140.283 189.579 139.979C189.767 139.674 189.898 139.311 189.975 138.889C190.051 138.461 190.089 137.998 190.089 137.5C190.089 136.416 189.916 135.575 189.57 134.978C189.225 134.38 188.615 134.081 187.742 134.081C187.303 134.081 186.934 134.157 186.635 134.31C186.342 134.456 186.102 134.676 185.914 134.969C185.732 135.256 185.601 135.613 185.519 136.041C185.437 136.463 185.396 136.949 185.396 137.5C185.396 137.998 185.437 138.461 185.519 138.889C185.601 139.311 185.732 139.674 185.914 139.979C186.102 140.283 186.342 140.518 186.635 140.682C186.934 140.846 187.303 140.928 187.742 140.928ZM195.485 142L193.227 132.991H194.984L196.628 141.183L198.096 133.114H200.161L201.901 141.183L203.325 132.991H205.092L202.991 142H200.847L199.124 134.292L197.647 142H195.485ZM208.546 142L206.287 132.991H208.045L209.688 141.183L211.156 133.114H213.222L214.962 141.183L216.386 132.991H218.152L216.052 142H213.907L212.185 134.292L210.708 142H208.546ZM221.606 142L219.348 132.991H221.105L222.749 141.183L224.217 133.114H226.282L228.022 141.183L229.446 132.991H231.213L229.112 142H226.968L225.245 134.292L223.769 142H221.606Z" fill="#757575"/>
<path d="M183.217 228L180.694 215.37H182.391L184.184 225.144L184.5 226.91L184.834 225.17L186.979 215.906H189.369L191.522 225.179L191.865 226.91L192.182 225.144L193.957 215.37H195.618L193.131 228H190.705L188.736 219.712L188.165 216.908L187.611 219.721L185.643 228H183.217ZM200.742 228.158C199.84 228.158 199.093 227.962 198.501 227.569C197.909 227.177 197.47 226.632 197.183 225.935C196.896 225.237 196.752 224.432 196.752 223.518C196.752 222.094 197.077 220.957 197.728 220.107C198.384 219.258 199.389 218.833 200.742 218.833C202.09 218.833 203.089 219.258 203.739 220.107C204.396 220.957 204.724 222.094 204.724 223.518C204.724 224.432 204.58 225.237 204.293 225.935C204.006 226.632 203.566 227.177 202.975 227.569C202.389 227.962 201.645 228.158 200.742 228.158ZM200.742 226.928C201.182 226.928 201.551 226.846 201.85 226.682C202.154 226.518 202.397 226.283 202.579 225.979C202.767 225.674 202.898 225.311 202.975 224.889C203.051 224.461 203.089 223.998 203.089 223.5C203.089 222.416 202.916 221.575 202.57 220.978C202.225 220.38 201.615 220.081 200.742 220.081C200.303 220.081 199.934 220.157 199.635 220.31C199.342 220.456 199.102 220.676 198.914 220.969C198.732 221.256 198.601 221.613 198.519 222.041C198.437 222.463 198.396 222.949 198.396 223.5C198.396 223.998 198.437 224.461 198.519 224.889C198.601 225.311 198.732 225.674 198.914 225.979C199.102 226.283 199.342 226.518 199.635 226.682C199.934 226.846 200.303 226.928 200.742 226.928ZM208.485 228L206.227 218.991H207.984L209.628 227.183L211.096 219.114H213.161L214.901 227.183L216.325 218.991H218.092L215.991 228H213.847L212.124 220.292L210.647 228H208.485ZM221.546 228L219.287 218.991H221.045L222.688 227.183L224.156 219.114H226.222L227.962 227.183L229.386 218.991H231.152L229.052 228H226.907L225.185 220.292L223.708 228H221.546Z" fill="#757575"/>
<path d="M196.217 314L193.694 301.37H195.391L197.184 311.144L197.5 312.91L197.834 311.17L199.979 301.906H202.369L204.522 311.179L204.865 312.91L205.182 311.144L206.957 301.37H208.618L206.131 314H203.705L201.736 305.712L201.165 302.908L200.611 305.721L198.643 314H196.217ZM213.742 314.158C212.84 314.158 212.093 313.962 211.501 313.569C210.909 313.177 210.47 312.632 210.183 311.935C209.896 311.237 209.752 310.432 209.752 309.518C209.752 308.094 210.077 306.957 210.728 306.107C211.384 305.258 212.389 304.833 213.742 304.833C215.09 304.833 216.089 305.258 216.739 306.107C217.396 306.957 217.724 308.094 217.724 309.518C217.724 310.432 217.58 311.237 217.293 311.935C217.006 312.632 216.566 313.177 215.975 313.569C215.389 313.962 214.645 314.158 213.742 314.158ZM213.742 312.928C214.182 312.928 214.551 312.846 214.85 312.682C215.154 312.518 215.397 312.283 215.579 311.979C215.767 311.674 215.898 311.311 215.975 310.889C216.051 310.461 216.089 309.998 216.089 309.5C216.089 308.416 215.916 307.575 215.57 306.978C215.225 306.38 214.615 306.081 213.742 306.081C213.303 306.081 212.934 306.157 212.635 306.31C212.342 306.456 212.102 306.676 211.914 306.969C211.732 307.256 211.601 307.613 211.519 308.041C211.437 308.463 211.396 308.949 211.396 309.5C211.396 309.998 211.437 310.461 211.519 310.889C211.601 311.311 211.732 311.674 211.914 311.979C212.102 312.283 212.342 312.518 212.635 312.682C212.934 312.846 213.303 312.928 213.742 312.928ZM221.485 314L219.227 304.991H220.984L222.628 313.183L224.096 305.114H226.161L227.901 313.183L229.325 304.991H231.092L228.991 314H226.847L225.124 306.292L223.647 314H221.485Z" fill="#757575"/>
<path fill-rule="evenodd" clip-rule="evenodd" d="M247 44H967V45H248V127.5H967V128.5H248V213H967V214H248V297.5H967V298.5H248V382.5H247V44Z" fill="#D0D0D0"/>
<path d="M262 62C262 60.8954 262.895 60 264 60H388C389.105 60 390 60.8954 390 62V382H262V62Z" fill="#A5D5D0"/>
<path d="M405 81C405 79.8954 405.895 79 407 79H531C532.105 79 533 79.8954 533 81V382H405V81Z" fill="#F1D6CF"/>
<path d="M548 62C548 60.8954 548.895 60 550 60H674C675.105 60 676 60.8954 676 62V382H548V62Z" fill="#ECC15C"/>
<path d="M691 130C691 128.895 691.895 128 693 128H817C818.105 128 819 128.895 819 130V382H691V130Z" fill="#D4AF79"/>
<path d="M834 249C834 247.895 834.895 247 836 247H960C961.105 247 962 247.895 962 249V382H834V249Z" fill="#D76564"/>
<path d="M287.404 354.09C287.08 353.466 286.63 352.998 286.054 352.686C285.478 352.362 284.812 352.2 284.056 352.2C283.228 352.2 282.49 352.386 281.842 352.758C281.194 353.13 280.684 353.658 280.312 354.342C279.952 355.026 279.772 355.818 279.772 356.718C279.772 357.618 279.952 358.416 280.312 359.112C280.684 359.796 281.194 360.324 281.842 360.696C282.49 361.068 283.228 361.254 284.056 361.254C285.172 361.254 286.078 360.942 286.774 360.318C287.47 359.694 287.896 358.848 288.052 357.78H283.354V356.142H290.248V357.744C290.116 358.716 289.768 359.61 289.204 360.426C288.652 361.242 287.926 361.896 287.026 362.388C286.138 362.868 285.148 363.108 284.056 363.108C282.88 363.108 281.806 362.838 280.834 362.298C279.862 361.746 279.088 360.984 278.512 360.012C277.948 359.04 277.666 357.942 277.666 356.718C277.666 355.494 277.948 354.396 278.512 353.424C279.088 352.452 279.862 351.696 280.834 351.156C281.818 350.604 282.892 350.328 284.056 350.328C285.388 350.328 286.57 350.658 287.602 351.318C288.646 351.966 289.402 352.89 289.87 354.09H287.404ZM291.588 357.996C291.588 357 291.792 356.118 292.2 355.35C292.62 354.582 293.184 353.988 293.892 353.568C294.612 353.136 295.404 352.92 296.268 352.92C297.048 352.92 297.726 353.076 298.302 353.388C298.89 353.688 299.358 354.066 299.706 354.522V353.082H301.776V363H299.706V361.524C299.358 361.992 298.884 362.382 298.284 362.694C297.684 363.006 297 363.162 296.232 363.162C295.38 363.162 294.6 362.946 293.892 362.514C293.184 362.07 292.62 361.458 292.2 360.678C291.792 359.886 291.588 358.992 291.588 357.996ZM299.706 358.032C299.706 357.348 299.562 356.754 299.274 356.25C298.998 355.746 298.632 355.362 298.176 355.098C297.72 354.834 297.228 354.702 296.7 354.702C296.172 354.702 295.68 354.834 295.224 355.098C294.768 355.35 294.396 355.728 294.108 356.232C293.832 356.724 293.694 357.312 293.694 357.996C293.694 358.68 293.832 359.28 294.108 359.796C294.396 360.312 294.768 360.708 295.224 360.984C295.692 361.248 296.184 361.38 296.7 361.38C297.228 361.38 297.72 361.248 298.176 360.984C298.632 360.72 298.998 360.336 299.274 359.832C299.562 359.316 299.706 358.716 299.706 358.032ZM306.523 354.522C306.823 354.018 307.219 353.628 307.711 353.352C308.215 353.064 308.809 352.92 309.493 352.92V355.044H308.971C308.167 355.044 307.555 355.248 307.135 355.656C306.727 356.064 306.523 356.772 306.523 357.78V363H304.471V353.082H306.523V354.522ZM310.695 357.996C310.695 357 310.899 356.118 311.307 355.35C311.727 354.582 312.291 353.988 312.999 353.568C313.719 353.136 314.517 352.92 315.393 352.92C316.041 352.92 316.677 353.064 317.301 353.352C317.937 353.628 318.441 354 318.813 354.468V349.68H320.883V363H318.813V361.506C318.477 361.986 318.009 362.382 317.409 362.694C316.821 363.006 316.143 363.162 315.375 363.162C314.511 363.162 313.719 362.946 312.999 362.514C312.291 362.07 311.727 361.458 311.307 360.678C310.899 359.886 310.695 358.992 310.695 357.996ZM318.813 358.032C318.813 357.348 318.669 356.754 318.381 356.25C318.105 355.746 317.739 355.362 317.283 355.098C316.827 354.834 316.335 354.702 315.807 354.702C315.279 354.702 314.787 354.834 314.331 355.098C313.875 355.35 313.503 355.728 313.215 356.232C312.939 356.724 312.801 357.312 312.801 357.996C312.801 358.68 312.939 359.28 313.215 359.796C313.503 360.312 313.875 360.708 314.331 360.984C314.799 361.248 315.291 361.38 315.807 361.38C316.335 361.38 316.827 361.248 317.283 360.984C317.739 360.72 318.105 360.336 318.381 359.832C318.669 359.316 318.813 358.716 318.813 358.032ZM332.669 357.798C332.669 358.17 332.645 358.506 332.597 358.806H325.019C325.079 359.598 325.373 360.234 325.901 360.714C326.429 361.194 327.077 361.434 327.845 361.434C328.949 361.434 329.729 360.972 330.185 360.048H332.399C332.099 360.96 331.553 361.71 330.761 362.298C329.981 362.874 329.009 363.162 327.845 363.162C326.897 363.162 326.045 362.952 325.289 362.532C324.545 362.1 323.957 361.5 323.525 360.732C323.105 359.952 322.895 359.052 322.895 358.032C322.895 357.012 323.099 356.118 323.507 355.35C323.927 354.57 324.509 353.97 325.253 353.55C326.009 353.13 326.873 352.92 327.845 352.92C328.781 352.92 329.615 353.124 330.347 353.532C331.079 353.94 331.649 354.516 332.057 355.26C332.465 355.992 332.669 356.838 332.669 357.798ZM330.527 357.15C330.515 356.394 330.245 355.788 329.717 355.332C329.189 354.876 328.535 354.648 327.755 354.648C327.047 354.648 326.441 354.876 325.937 355.332C325.433 355.776 325.133 356.382 325.037 357.15H330.527ZM339.692 352.92C340.472 352.92 341.168 353.082 341.78 353.406C342.404 353.73 342.89 354.21 343.238 354.846C343.586 355.482 343.76 356.25 343.76 357.15V363H341.726V357.456C341.726 356.568 341.504 355.89 341.06 355.422C340.616 354.942 340.01 354.702 339.242 354.702C338.474 354.702 337.862 354.942 337.406 355.422C336.962 355.89 336.74 356.568 336.74 357.456V363H334.688V353.082H336.74V354.216C337.076 353.808 337.502 353.49 338.018 353.262C338.546 353.034 339.104 352.92 339.692 352.92ZM347.421 351.768C347.049 351.768 346.737 351.642 346.485 351.39C346.233 351.138 346.107 350.826 346.107 350.454C346.107 350.082 346.233 349.77 346.485 349.518C346.737 349.266 347.049 349.14 347.421 349.14C347.781 349.14 348.087 349.266 348.339 349.518C348.591 349.77 348.717 350.082 348.717 350.454C348.717 350.826 348.591 351.138 348.339 351.39C348.087 351.642 347.781 351.768 347.421 351.768ZM348.429 353.082V363H346.377V353.082H348.429ZM356.127 352.92C356.907 352.92 357.603 353.082 358.215 353.406C358.839 353.73 359.325 354.21 359.673 354.846C360.021 355.482 360.195 356.25 360.195 357.15V363H358.161V357.456C358.161 356.568 357.939 355.89 357.495 355.422C357.051 354.942 356.445 354.702 355.677 354.702C354.909 354.702 354.297 354.942 353.841 355.422C353.397 355.89 353.175 356.568 353.175 357.456V363H351.123V353.082H353.175V354.216C353.511 353.808 353.937 353.49 354.453 353.262C354.981 353.034 355.539 352.92 356.127 352.92ZM366.809 352.92C367.577 352.92 368.255 353.076 368.843 353.388C369.443 353.688 369.911 354.066 370.247 354.522V353.082H372.317V363.162C372.317 364.074 372.125 364.884 371.741 365.592C371.357 366.312 370.799 366.876 370.067 367.284C369.347 367.692 368.483 367.896 367.475 367.896C366.131 367.896 365.015 367.578 364.127 366.942C363.239 366.318 362.735 365.466 362.615 364.386H364.649C364.805 364.902 365.135 365.316 365.639 365.628C366.155 365.952 366.767 366.114 367.475 366.114C368.303 366.114 368.969 365.862 369.473 365.358C369.989 364.854 370.247 364.122 370.247 363.162V361.506C369.899 361.974 369.425 362.37 368.825 362.694C368.237 363.006 367.565 363.162 366.809 363.162C365.945 363.162 365.153 362.946 364.433 362.514C363.725 362.07 363.161 361.458 362.741 360.678C362.333 359.886 362.129 358.992 362.129 357.996C362.129 357 362.333 356.118 362.741 355.35C363.161 354.582 363.725 353.988 364.433 353.568C365.153 353.136 365.945 352.92 366.809 352.92ZM370.247 358.032C370.247 357.348 370.103 356.754 369.815 356.25C369.539 355.746 369.173 355.362 368.717 355.098C368.261 354.834 367.769 354.702 367.241 354.702C366.713 354.702 366.221 354.834 365.765 355.098C365.309 355.35 364.937 355.728 364.649 356.232C364.373 356.724 364.235 357.312 364.235 357.996C364.235 358.68 364.373 359.28 364.649 359.796C364.937 360.312 365.309 360.708 365.765 360.984C366.233 361.248 366.725 361.38 367.241 361.38C367.769 361.38 368.261 361.248 368.717 360.984C369.173 360.72 369.539 360.336 369.815 359.832C370.103 359.316 370.247 358.716 370.247 358.032Z" fill="#333333"/>
<path d="M306.328 323.152C306.648 324.837 307.629 325.68 309.272 325.68C310.403 325.68 311.203 325.179 311.672 324.176C312.141 323.173 312.376 321.541 312.376 319.28C311.907 319.941 311.267 320.453 310.456 320.816C309.645 321.179 308.739 321.36 307.736 321.36C306.371 321.36 305.155 321.083 304.088 320.528C303.021 319.952 302.179 319.109 301.56 318C300.963 316.869 300.664 315.504 300.664 313.904C300.664 312.325 300.984 310.949 301.624 309.776C302.285 308.603 303.213 307.696 304.408 307.056C305.624 306.416 307.053 306.096 308.696 306.096C311.853 306.096 314.061 307.077 315.32 309.04C316.579 311.003 317.208 313.893 317.208 317.712C317.208 320.485 316.952 322.779 316.44 324.592C315.949 326.384 315.107 327.749 313.912 328.688C312.739 329.627 311.128 330.096 309.08 330.096C307.459 330.096 306.072 329.776 304.92 329.136C303.789 328.496 302.915 327.653 302.296 326.608C301.699 325.563 301.357 324.411 301.272 323.152H306.328ZM308.984 317.04C309.88 317.04 310.595 316.773 311.128 316.24C311.661 315.685 311.928 314.939 311.928 314C311.928 312.976 311.651 312.187 311.096 311.632C310.541 311.077 309.795 310.8 308.856 310.8C307.917 310.8 307.171 311.088 306.616 311.664C306.083 312.219 305.816 312.987 305.816 313.968C305.816 314.885 306.083 315.632 306.616 316.208C307.171 316.763 307.96 317.04 308.984 317.04ZM323.968 317.456C321.962 316.389 320.96 314.715 320.96 312.432C320.96 311.28 321.258 310.235 321.856 309.296C322.453 308.336 323.36 307.579 324.576 307.024C325.792 306.448 327.285 306.16 329.056 306.16C330.826 306.16 332.309 306.448 333.504 307.024C334.72 307.579 335.626 308.336 336.224 309.296C336.821 310.235 337.12 311.28 337.12 312.432C337.12 313.584 336.842 314.587 336.288 315.44C335.754 316.293 335.029 316.965 334.112 317.456C335.264 318.011 336.149 318.779 336.767 319.76C337.386 320.72 337.696 321.851 337.696 323.152C337.696 324.667 337.312 325.979 336.544 327.088C335.776 328.176 334.73 329.008 333.408 329.584C332.106 330.16 330.656 330.448 329.056 330.448C327.456 330.448 325.994 330.16 324.672 329.584C323.37 329.008 322.336 328.176 321.568 327.088C320.8 325.979 320.416 324.667 320.416 323.152C320.416 321.829 320.725 320.688 321.344 319.728C321.962 318.747 322.837 317.989 323.968 317.456ZM331.808 313.264C331.808 312.389 331.552 311.717 331.04 311.248C330.549 310.757 329.888 310.512 329.056 310.512C328.224 310.512 327.552 310.757 327.04 311.248C326.549 311.739 326.304 312.421 326.304 313.296C326.304 314.128 326.56 314.789 327.072 315.28C327.584 315.749 328.245 315.984 329.056 315.984C329.866 315.984 330.528 315.739 331.04 315.248C331.552 314.757 331.808 314.096 331.808 313.264ZM329.056 319.824C328.053 319.824 327.242 320.101 326.624 320.656C326.005 321.189 325.696 321.936 325.696 322.896C325.696 323.792 325.994 324.528 326.592 325.104C327.21 325.68 328.032 325.968 329.056 325.968C330.08 325.968 330.88 325.68 331.456 325.104C332.053 324.528 332.352 323.792 332.352 322.896C332.352 321.957 332.042 321.211 331.424 320.656C330.826 320.101 330.037 319.824 329.056 319.824ZM342.522 322.406C342.774 322.406 342.982 322.359 343.146 322.266C343.311 322.166 343.439 322.028 343.533 321.853C343.633 321.671 343.7 321.454 343.735 321.202C343.776 320.944 343.797 320.657 343.797 320.341C343.797 320.019 343.776 319.731 343.735 319.479C343.7 319.222 343.633 319.005 343.533 318.829C343.439 318.647 343.311 318.51 343.146 318.416C342.982 318.316 342.774 318.267 342.522 318.267C342.265 318.267 342.054 318.316 341.89 318.416C341.726 318.51 341.594 318.647 341.494 318.829C341.4 319.005 341.333 319.222 341.292 319.479C341.257 319.731 341.239 320.019 341.239 320.341C341.239 320.657 341.257 320.944 341.292 321.202C341.333 321.454 341.4 321.671 341.494 321.853C341.594 322.028 341.726 322.166 341.89 322.266C342.054 322.359 342.265 322.406 342.522 322.406ZM340.167 320.341C340.167 319.339 340.369 318.592 340.773 318.1C341.178 317.607 341.761 317.361 342.522 317.361C343.296 317.361 343.882 317.607 344.28 318.1C344.679 318.592 344.878 319.339 344.878 320.341C344.878 322.321 344.093 323.312 342.522 323.312C341.749 323.312 341.163 323.068 340.765 322.582C340.366 322.09 340.167 321.343 340.167 320.341ZM341.239 330.105L348.956 316.904L349.949 317.493L342.197 330.677L341.239 330.105ZM349.87 327.179C349.87 326.862 349.85 326.575 349.809 326.317C349.773 326.06 349.706 325.843 349.606 325.667C349.513 325.485 349.384 325.348 349.22 325.254C349.056 325.154 348.848 325.104 348.596 325.104C348.338 325.104 348.124 325.154 347.954 325.254C347.79 325.348 347.658 325.485 347.559 325.667C347.465 325.843 347.397 326.06 347.356 326.317C347.321 326.575 347.304 326.862 347.304 327.179C347.304 327.495 347.321 327.782 347.356 328.04C347.397 328.298 347.465 328.518 347.559 328.699C347.658 328.875 347.79 329.013 347.954 329.112C348.124 329.206 348.338 329.253 348.596 329.253C348.848 329.253 349.056 329.206 349.22 329.112C349.384 329.013 349.513 328.875 349.606 328.699C349.706 328.518 349.773 328.298 349.809 328.04C349.85 327.782 349.87 327.495 349.87 327.179ZM346.24 327.179C346.24 326.177 346.437 325.43 346.829 324.938C347.228 324.445 347.816 324.199 348.596 324.199C349.369 324.199 349.955 324.445 350.354 324.938C350.752 325.43 350.951 326.177 350.951 327.179C350.951 329.165 350.166 330.158 348.596 330.158C347.822 330.158 347.236 329.912 346.838 329.42C346.439 328.928 346.24 328.181 346.24 327.179Z" fill="#333333"/>
<path d="M594.142 323.49V331.464C594.142 332.412 594.388 333.126 594.88 333.606C595.384 334.086 596.08 334.326 596.968 334.326C597.868 334.326 598.564 334.086 599.056 333.606C599.56 333.126 599.812 332.412 599.812 331.464V323.49H601.864V331.428C601.864 332.448 601.642 333.312 601.198 334.02C600.754 334.728 600.16 335.256 599.416 335.604C598.672 335.952 597.85 336.126 596.95 336.126C596.05 336.126 595.228 335.952 594.484 335.604C593.752 335.256 593.17 334.728 592.738 334.02C592.306 333.312 592.09 332.448 592.09 331.428V323.49H594.142ZM606.588 323.49V336H604.536V323.49H606.588ZM611.316 323.49V331.464C611.316 332.412 611.562 333.126 612.054 333.606C612.558 334.086 613.254 334.326 614.142 334.326C615.042 334.326 615.738 334.086 616.23 333.606C616.734 333.126 616.986 332.412 616.986 331.464V323.49H619.038V331.428C619.038 332.448 618.816 333.312 618.372 334.02C617.928 334.728 617.334 335.256 616.59 335.604C615.846 335.952 615.024 336.126 614.124 336.126C613.224 336.126 612.402 335.952 611.658 335.604C610.926 335.256 610.344 334.728 609.912 334.02C609.48 333.312 609.264 332.448 609.264 331.428V323.49H611.316ZM627.451 329.754L631.339 336H629.035L626.209 331.464L623.563 336H621.277L625.165 329.754L621.259 323.49H623.563L626.407 328.062L629.071 323.49H631.357L627.451 329.754ZM585.875 350.49C587.207 350.49 588.371 350.748 589.367 351.264C590.375 351.768 591.149 352.5 591.689 353.46C592.241 354.408 592.517 355.518 592.517 356.79C592.517 358.062 592.241 359.166 591.689 360.102C591.149 361.038 590.375 361.758 589.367 362.262C588.371 362.754 587.207 363 585.875 363H581.789V350.49H585.875ZM585.875 361.326C587.339 361.326 588.461 360.93 589.241 360.138C590.021 359.346 590.411 358.23 590.411 356.79C590.411 355.338 590.021 354.204 589.241 353.388C588.461 352.572 587.339 352.164 585.875 352.164H583.841V361.326H585.875ZM603.641 357.798C603.641 358.17 603.617 358.506 603.569 358.806H595.991C596.051 359.598 596.345 360.234 596.873 360.714C597.401 361.194 598.049 361.434 598.817 361.434C599.921 361.434 600.701 360.972 601.157 360.048H603.371C603.071 360.96 602.525 361.71 601.733 362.298C600.953 362.874 599.981 363.162 598.817 363.162C597.869 363.162 597.017 362.952 596.261 362.532C595.517 362.1 594.929 361.5 594.497 360.732C594.077 359.952 593.867 359.052 593.867 358.032C593.867 357.012 594.071 356.118 594.479 355.35C594.899 354.57 595.481 353.97 596.225 353.55C596.981 353.13 597.845 352.92 598.817 352.92C599.753 352.92 600.587 353.124 601.319 353.532C602.051 353.94 602.621 354.516 603.029 355.26C603.437 355.992 603.641 356.838 603.641 357.798ZM601.499 357.15C601.487 356.394 601.217 355.788 600.689 355.332C600.161 354.876 599.507 354.648 598.727 354.648C598.019 354.648 597.413 354.876 596.909 355.332C596.405 355.776 596.105 356.382 596.009 357.15H601.499ZM609.261 363.162C608.481 363.162 607.779 363.024 607.155 362.748C606.543 362.46 606.057 362.076 605.697 361.596C605.337 361.104 605.145 360.558 605.121 359.958H607.245C607.281 360.378 607.479 360.732 607.839 361.02C608.211 361.296 608.673 361.434 609.225 361.434C609.801 361.434 610.245 361.326 610.557 361.11C610.881 360.882 611.043 360.594 611.043 360.246C611.043 359.874 610.863 359.598 610.503 359.418C610.155 359.238 609.597 359.04 608.829 358.824C608.085 358.62 607.479 358.422 607.011 358.23C606.543 358.038 606.135 357.744 605.787 357.348C605.451 356.952 605.283 356.43 605.283 355.782C605.283 355.254 605.439 354.774 605.751 354.342C606.063 353.898 606.507 353.55 607.083 353.298C607.671 353.046 608.343 352.92 609.099 352.92C610.227 352.92 611.133 353.208 611.817 353.784C612.513 354.348 612.885 355.122 612.933 356.106H610.881C610.845 355.662 610.665 355.308 610.341 355.044C610.017 354.78 609.579 354.648 609.027 354.648C608.487 354.648 608.073 354.75 607.785 354.954C607.497 355.158 607.353 355.428 607.353 355.764C607.353 356.028 607.449 356.25 607.641 356.43C607.833 356.61 608.067 356.754 608.343 356.862C608.619 356.958 609.027 357.084 609.567 357.24C610.287 357.432 610.875 357.63 611.331 357.834C611.799 358.026 612.201 358.314 612.537 358.698C612.873 359.082 613.047 359.592 613.059 360.228C613.059 360.792 612.903 361.296 612.591 361.74C612.279 362.184 611.835 362.532 611.259 362.784C610.695 363.036 610.029 363.162 609.261 363.162ZM616.32 351.768C615.948 351.768 615.636 351.642 615.384 351.39C615.132 351.138 615.006 350.826 615.006 350.454C615.006 350.082 615.132 349.77 615.384 349.518C615.636 349.266 615.948 349.14 616.32 349.14C616.68 349.14 616.986 349.266 617.238 349.518C617.49 349.77 617.616 350.082 617.616 350.454C617.616 350.826 617.49 351.138 617.238 351.39C616.986 351.642 616.68 351.768 616.32 351.768ZM617.328 353.082V363H615.276V353.082H617.328ZM624.018 352.92C624.786 352.92 625.464 353.076 626.052 353.388C626.652 353.688 627.12 354.066 627.456 354.522V353.082H629.526V363.162C629.526 364.074 629.334 364.884 628.95 365.592C628.566 366.312 628.008 366.876 627.276 367.284C626.556 367.692 625.692 367.896 624.684 367.896C623.34 367.896 622.224 367.578 621.336 366.942C620.448 366.318 619.944 365.466 619.824 364.386H621.858C622.014 364.902 622.344 365.316 622.848 365.628C623.364 365.952 623.976 366.114 624.684 366.114C625.512 366.114 626.178 365.862 626.682 365.358C627.198 364.854 627.456 364.122 627.456 363.162V361.506C627.108 361.974 626.634 362.37 626.034 362.694C625.446 363.006 624.774 363.162 624.018 363.162C623.154 363.162 622.362 362.946 621.642 362.514C620.934 362.07 620.37 361.458 619.95 360.678C619.542 359.886 619.338 358.992 619.338 357.996C619.338 357 619.542 356.118 619.95 355.35C620.37 354.582 620.934 353.988 621.642 353.568C622.362 353.136 623.154 352.92 624.018 352.92ZM627.456 358.032C627.456 357.348 627.312 356.754 627.024 356.25C626.748 355.746 626.382 355.362 625.926 355.098C625.47 354.834 624.978 354.702 624.45 354.702C623.922 354.702 623.43 354.834 622.974 355.098C622.518 355.35 622.146 355.728 621.858 356.232C621.582 356.724 621.444 357.312 621.444 357.996C621.444 358.68 621.582 359.28 621.858 359.796C622.146 360.312 622.518 360.708 622.974 360.984C623.442 361.248 623.934 361.38 624.45 361.38C624.978 361.38 625.47 361.248 625.926 360.984C626.382 360.72 626.748 360.336 627.024 359.832C627.312 359.316 627.456 358.716 627.456 358.032ZM637.225 352.92C638.005 352.92 638.701 353.082 639.313 353.406C639.937 353.73 640.423 354.21 640.771 354.846C641.119 355.482 641.293 356.25 641.293 357.15V363H639.259V357.456C639.259 356.568 639.037 355.89 638.593 355.422C638.149 354.942 637.543 354.702 636.775 354.702C636.007 354.702 635.395 354.942 634.939 355.422C634.495 355.89 634.273 356.568 634.273 357.456V363H632.221V353.082H634.273V354.216C634.609 353.808 635.035 353.49 635.551 353.262C636.079 353.034 636.637 352.92 637.225 352.92Z" fill="#333333"/>
<path d="M592.328 296.152C592.648 297.837 593.629 298.68 595.272 298.68C596.403 298.68 597.203 298.179 597.672 297.176C598.141 296.173 598.376 294.541 598.376 292.28C597.907 292.941 597.267 293.453 596.456 293.816C595.645 294.179 594.739 294.36 593.736 294.36C592.371 294.36 591.155 294.083 590.088 293.528C589.021 292.952 588.179 292.109 587.56 291C586.963 289.869 586.664 288.504 586.664 286.904C586.664 285.325 586.984 283.949 587.624 282.776C588.285 281.603 589.213 280.696 590.408 280.056C591.624 279.416 593.053 279.096 594.696 279.096C597.853 279.096 600.061 280.077 601.32 282.04C602.579 284.003 603.208 286.893 603.208 290.712C603.208 293.485 602.952 295.779 602.44 297.592C601.949 299.384 601.107 300.749 599.912 301.688C598.739 302.627 597.128 303.096 595.08 303.096C593.459 303.096 592.072 302.776 590.92 302.136C589.789 301.496 588.915 300.653 588.296 299.608C587.699 298.563 587.357 297.411 587.272 296.152H592.328ZM594.984 290.04C595.88 290.04 596.595 289.773 597.128 289.24C597.661 288.685 597.928 287.939 597.928 287C597.928 285.976 597.651 285.187 597.096 284.632C596.541 284.077 595.795 283.8 594.856 283.8C593.917 283.8 593.171 284.088 592.616 284.664C592.083 285.219 591.816 285.987 591.816 286.968C591.816 287.885 592.083 288.632 592.616 289.208C593.171 289.763 593.96 290.04 594.984 290.04ZM609.968 290.456C607.962 289.389 606.96 287.715 606.96 285.432C606.96 284.28 607.258 283.235 607.856 282.296C608.453 281.336 609.36 280.579 610.576 280.024C611.792 279.448 613.285 279.16 615.056 279.16C616.826 279.16 618.309 279.448 619.504 280.024C620.72 280.579 621.626 281.336 622.224 282.296C622.821 283.235 623.12 284.28 623.12 285.432C623.12 286.584 622.842 287.587 622.288 288.44C621.754 289.293 621.029 289.965 620.112 290.456C621.264 291.011 622.149 291.779 622.767 292.76C623.386 293.72 623.696 294.851 623.696 296.152C623.696 297.667 623.312 298.979 622.544 300.088C621.776 301.176 620.73 302.008 619.408 302.584C618.106 303.16 616.656 303.448 615.056 303.448C613.456 303.448 611.994 303.16 610.672 302.584C609.37 302.008 608.336 301.176 607.568 300.088C606.8 298.979 606.416 297.667 606.416 296.152C606.416 294.829 606.725 293.688 607.344 292.728C607.962 291.747 608.837 290.989 609.968 290.456ZM617.808 286.264C617.808 285.389 617.552 284.717 617.04 284.248C616.549 283.757 615.888 283.512 615.056 283.512C614.224 283.512 613.552 283.757 613.04 284.248C612.549 284.739 612.304 285.421 612.304 286.296C612.304 287.128 612.56 287.789 613.072 288.28C613.584 288.749 614.245 288.984 615.056 288.984C615.866 288.984 616.528 288.739 617.04 288.248C617.552 287.757 617.808 287.096 617.808 286.264ZM615.056 292.824C614.053 292.824 613.242 293.101 612.624 293.656C612.005 294.189 611.696 294.936 611.696 295.896C611.696 296.792 611.994 297.528 612.592 298.104C613.21 298.68 614.032 298.968 615.056 298.968C616.08 298.968 616.88 298.68 617.456 298.104C618.053 297.528 618.352 296.792 618.352 295.896C618.352 294.957 618.042 294.211 617.424 293.656C616.826 293.101 616.037 292.824 615.056 292.824ZM628.522 295.406C628.774 295.406 628.982 295.359 629.146 295.266C629.311 295.166 629.439 295.028 629.533 294.853C629.633 294.671 629.7 294.454 629.735 294.202C629.776 293.944 629.797 293.657 629.797 293.341C629.797 293.019 629.776 292.731 629.735 292.479C629.7 292.222 629.633 292.005 629.533 291.829C629.439 291.647 629.311 291.51 629.146 291.416C628.982 291.316 628.774 291.267 628.522 291.267C628.265 291.267 628.054 291.316 627.89 291.416C627.726 291.51 627.594 291.647 627.494 291.829C627.4 292.005 627.333 292.222 627.292 292.479C627.257 292.731 627.239 293.019 627.239 293.341C627.239 293.657 627.257 293.944 627.292 294.202C627.333 294.454 627.4 294.671 627.494 294.853C627.594 295.028 627.726 295.166 627.89 295.266C628.054 295.359 628.265 295.406 628.522 295.406ZM626.167 293.341C626.167 292.339 626.369 291.592 626.773 291.1C627.178 290.607 627.761 290.361 628.522 290.361C629.296 290.361 629.882 290.607 630.28 291.1C630.679 291.592 630.878 292.339 630.878 293.341C630.878 295.321 630.093 296.312 628.522 296.312C627.749 296.312 627.163 296.068 626.765 295.582C626.366 295.09 626.167 294.343 626.167 293.341ZM627.239 303.105L634.956 289.904L635.949 290.493L628.197 303.677L627.239 303.105ZM635.87 300.179C635.87 299.862 635.85 299.575 635.809 299.317C635.773 299.06 635.706 298.843 635.606 298.667C635.513 298.485 635.384 298.348 635.22 298.254C635.056 298.154 634.848 298.104 634.596 298.104C634.338 298.104 634.124 298.154 633.954 298.254C633.79 298.348 633.658 298.485 633.559 298.667C633.465 298.843 633.397 299.06 633.356 299.317C633.321 299.575 633.304 299.862 633.304 300.179C633.304 300.495 633.321 300.782 633.356 301.04C633.397 301.298 633.465 301.518 633.559 301.699C633.658 301.875 633.79 302.013 633.954 302.112C634.124 302.206 634.338 302.253 634.596 302.253C634.848 302.253 635.056 302.206 635.22 302.112C635.384 302.013 635.513 301.875 635.606 301.699C635.706 301.518 635.773 301.298 635.809 301.04C635.85 300.782 635.87 300.495 635.87 300.179ZM632.24 300.179C632.24 299.177 632.437 298.43 632.829 297.938C633.228 297.445 633.816 297.199 634.596 297.199C635.369 297.199 635.955 297.445 636.354 297.938C636.752 298.43 636.951 299.177 636.951 300.179C636.951 302.165 636.166 303.158 634.596 303.158C633.822 303.158 633.236 302.912 632.838 302.42C632.439 301.928 632.24 301.181 632.24 300.179Z" fill="#333333"/>
<path d="M728.675 327.09C728.351 326.466 727.901 325.998 727.325 325.686C726.749 325.362 726.083 325.2 725.327 325.2C724.499 325.2 723.761 325.386 723.113 325.758C722.465 326.13 721.955 326.658 721.583 327.342C721.223 328.026 721.043 328.818 721.043 329.718C721.043 330.618 721.223 331.416 721.583 332.112C721.955 332.796 722.465 333.324 723.113 333.696C723.761 334.068 724.499 334.254 725.327 334.254C726.443 334.254 727.349 333.942 728.045 333.318C728.741 332.694 729.167 331.848 729.323 330.78H724.625V329.142H731.519V330.744C731.387 331.716 731.039 332.61 730.475 333.426C729.923 334.242 729.197 334.896 728.297 335.388C727.409 335.868 726.419 336.108 725.327 336.108C724.151 336.108 723.077 335.838 722.105 335.298C721.133 334.746 720.359 333.984 719.783 333.012C719.219 332.04 718.937 330.942 718.937 329.718C718.937 328.494 719.219 327.396 719.783 326.424C720.359 325.452 721.133 324.696 722.105 324.156C723.089 323.604 724.163 323.328 725.327 323.328C726.659 323.328 727.841 323.658 728.873 324.318C729.917 324.966 730.673 325.89 731.141 327.09H728.675ZM735.595 327.522C735.895 327.018 736.291 326.628 736.783 326.352C737.287 326.064 737.881 325.92 738.565 325.92V328.044H738.043C737.239 328.044 736.627 328.248 736.207 328.656C735.799 329.064 735.595 329.772 735.595 330.78V336H733.543V326.082H735.595V327.522ZM739.768 330.996C739.768 330 739.972 329.118 740.38 328.35C740.8 327.582 741.364 326.988 742.072 326.568C742.792 326.136 743.584 325.92 744.448 325.92C745.228 325.92 745.906 326.076 746.482 326.388C747.07 326.688 747.538 327.066 747.886 327.522V326.082H749.956V336H747.886V334.524C747.538 334.992 747.064 335.382 746.464 335.694C745.864 336.006 745.18 336.162 744.412 336.162C743.56 336.162 742.78 335.946 742.072 335.514C741.364 335.07 740.8 334.458 740.38 333.678C739.972 332.886 739.768 331.992 739.768 330.996ZM747.886 331.032C747.886 330.348 747.742 329.754 747.454 329.25C747.178 328.746 746.812 328.362 746.356 328.098C745.9 327.834 745.408 327.702 744.88 327.702C744.352 327.702 743.86 327.834 743.404 328.098C742.948 328.35 742.576 328.728 742.288 329.232C742.012 329.724 741.874 330.312 741.874 330.996C741.874 331.68 742.012 332.28 742.288 332.796C742.576 333.312 742.948 333.708 743.404 333.984C743.872 334.248 744.364 334.38 744.88 334.38C745.408 334.38 745.9 334.248 746.356 333.984C746.812 333.72 747.178 333.336 747.454 332.832C747.742 332.316 747.886 331.716 747.886 331.032ZM754.703 327.54C755.051 327.084 755.525 326.7 756.125 326.388C756.725 326.076 757.403 325.92 758.159 325.92C759.023 325.92 759.809 326.136 760.517 326.568C761.237 326.988 761.801 327.582 762.209 328.35C762.617 329.118 762.821 330 762.821 330.996C762.821 331.992 762.617 332.886 762.209 333.678C761.801 334.458 761.237 335.07 760.517 335.514C759.809 335.946 759.023 336.162 758.159 336.162C757.403 336.162 756.731 336.012 756.143 335.712C755.555 335.4 755.075 335.016 754.703 334.56V340.716H752.651V326.082H754.703V327.54ZM760.733 330.996C760.733 330.312 760.589 329.724 760.301 329.232C760.025 328.728 759.653 328.35 759.185 328.098C758.729 327.834 758.237 327.702 757.709 327.702C757.193 327.702 756.701 327.834 756.233 328.098C755.777 328.362 755.405 328.746 755.117 329.25C754.841 329.754 754.703 330.348 754.703 331.032C754.703 331.716 754.841 332.316 755.117 332.832C755.405 333.336 755.777 333.72 756.233 333.984C756.701 334.248 757.193 334.38 757.709 334.38C758.237 334.38 758.729 334.248 759.185 333.984C759.653 333.708 760.025 333.312 760.301 332.796C760.589 332.28 760.733 331.68 760.733 330.996ZM769.98 325.92C770.736 325.92 771.408 326.082 771.996 326.406C772.596 326.73 773.064 327.21 773.4 327.846C773.748 328.482 773.922 329.25 773.922 330.15V336H771.888V330.456C771.888 329.568 771.666 328.89 771.222 328.422C770.778 327.942 770.172 327.702 769.404 327.702C768.636 327.702 768.024 327.942 767.568 328.422C767.124 328.89 766.902 329.568 766.902 330.456V336H764.85V322.68H766.902V327.234C767.25 326.814 767.688 326.49 768.216 326.262C768.756 326.034 769.344 325.92 769.98 325.92ZM777.583 324.768C777.211 324.768 776.899 324.642 776.647 324.39C776.395 324.138 776.269 323.826 776.269 323.454C776.269 323.082 776.395 322.77 776.647 322.518C776.899 322.266 777.211 322.14 777.583 322.14C777.943 322.14 778.249 322.266 778.501 322.518C778.753 322.77 778.879 323.082 778.879 323.454C778.879 323.826 778.753 324.138 778.501 324.39C778.249 324.642 777.943 324.768 777.583 324.768ZM778.591 326.082V336H776.539V326.082H778.591ZM780.602 331.032C780.602 330.012 780.806 329.118 781.214 328.35C781.634 327.57 782.21 326.97 782.942 326.55C783.674 326.13 784.514 325.92 785.462 325.92C786.662 325.92 787.652 326.208 788.432 326.784C789.224 327.348 789.758 328.158 790.034 329.214H787.82C787.64 328.722 787.352 328.338 786.956 328.062C786.56 327.786 786.062 327.648 785.462 327.648C784.622 327.648 783.95 327.948 783.446 328.548C782.954 329.136 782.708 329.964 782.708 331.032C782.708 332.1 782.954 332.934 783.446 333.534C783.95 334.134 784.622 334.434 785.462 334.434C786.65 334.434 787.436 333.912 787.82 332.868H790.034C789.746 333.876 789.206 334.68 788.414 335.28C787.622 335.868 786.638 336.162 785.462 336.162C784.514 336.162 783.674 335.952 782.942 335.532C782.21 335.1 781.634 334.5 781.214 333.732C780.806 332.952 780.602 332.052 780.602 331.032ZM728.875 350.49C730.207 350.49 731.371 350.748 732.367 351.264C733.375 351.768 734.149 352.5 734.689 353.46C735.241 354.408 735.517 355.518 735.517 356.79C735.517 358.062 735.241 359.166 734.689 360.102C734.149 361.038 733.375 361.758 732.367 362.262C731.371 362.754 730.207 363 728.875 363H724.789V350.49H728.875ZM728.875 361.326C730.339 361.326 731.461 360.93 732.241 360.138C733.021 359.346 733.411 358.23 733.411 356.79C733.411 355.338 733.021 354.204 732.241 353.388C731.461 352.572 730.339 352.164 728.875 352.164H726.841V361.326H728.875ZM746.641 357.798C746.641 358.17 746.617 358.506 746.569 358.806H738.991C739.051 359.598 739.345 360.234 739.873 360.714C740.401 361.194 741.049 361.434 741.817 361.434C742.921 361.434 743.701 360.972 744.157 360.048H746.371C746.071 360.96 745.525 361.71 744.733 362.298C743.953 362.874 742.981 363.162 741.817 363.162C740.869 363.162 740.017 362.952 739.261 362.532C738.517 362.1 737.929 361.5 737.497 360.732C737.077 359.952 736.867 359.052 736.867 358.032C736.867 357.012 737.071 356.118 737.479 355.35C737.899 354.57 738.481 353.97 739.225 353.55C739.981 353.13 740.845 352.92 741.817 352.92C742.753 352.92 743.587 353.124 744.319 353.532C745.051 353.94 745.621 354.516 746.029 355.26C746.437 355.992 746.641 356.838 746.641 357.798ZM744.499 357.15C744.487 356.394 744.217 355.788 743.689 355.332C743.161 354.876 742.507 354.648 741.727 354.648C741.019 354.648 740.413 354.876 739.909 355.332C739.405 355.776 739.105 356.382 739.009 357.15H744.499ZM752.261 363.162C751.481 363.162 750.779 363.024 750.155 362.748C749.543 362.46 749.057 362.076 748.697 361.596C748.337 361.104 748.145 360.558 748.121 359.958H750.245C750.281 360.378 750.479 360.732 750.839 361.02C751.211 361.296 751.673 361.434 752.225 361.434C752.801 361.434 753.245 361.326 753.557 361.11C753.881 360.882 754.043 360.594 754.043 360.246C754.043 359.874 753.863 359.598 753.503 359.418C753.155 359.238 752.597 359.04 751.829 358.824C751.085 358.62 750.479 358.422 750.011 358.23C749.543 358.038 749.135 357.744 748.787 357.348C748.451 356.952 748.283 356.43 748.283 355.782C748.283 355.254 748.439 354.774 748.751 354.342C749.063 353.898 749.507 353.55 750.083 353.298C750.671 353.046 751.343 352.92 752.099 352.92C753.227 352.92 754.133 353.208 754.817 353.784C755.513 354.348 755.885 355.122 755.933 356.106H753.881C753.845 355.662 753.665 355.308 753.341 355.044C753.017 354.78 752.579 354.648 752.027 354.648C751.487 354.648 751.073 354.75 750.785 354.954C750.497 355.158 750.353 355.428 750.353 355.764C750.353 356.028 750.449 356.25 750.641 356.43C750.833 356.61 751.067 356.754 751.343 356.862C751.619 356.958 752.027 357.084 752.567 357.24C753.287 357.432 753.875 357.63 754.331 357.834C754.799 358.026 755.201 358.314 755.537 358.698C755.873 359.082 756.047 359.592 756.059 360.228C756.059 360.792 755.903 361.296 755.591 361.74C755.279 362.184 754.835 362.532 754.259 362.784C753.695 363.036 753.029 363.162 752.261 363.162ZM759.32 351.768C758.948 351.768 758.636 351.642 758.384 351.39C758.132 351.138 758.006 350.826 758.006 350.454C758.006 350.082 758.132 349.77 758.384 349.518C758.636 349.266 758.948 349.14 759.32 349.14C759.68 349.14 759.986 349.266 760.238 349.518C760.49 349.77 760.616 350.082 760.616 350.454C760.616 350.826 760.49 351.138 760.238 351.39C759.986 351.642 759.68 351.768 759.32 351.768ZM760.328 353.082V363H758.276V353.082H760.328ZM767.018 352.92C767.786 352.92 768.464 353.076 769.052 353.388C769.652 353.688 770.12 354.066 770.456 354.522V353.082H772.526V363.162C772.526 364.074 772.334 364.884 771.95 365.592C771.566 366.312 771.008 366.876 770.276 367.284C769.556 367.692 768.692 367.896 767.684 367.896C766.34 367.896 765.224 367.578 764.336 366.942C763.448 366.318 762.944 365.466 762.824 364.386H764.858C765.014 364.902 765.344 365.316 765.848 365.628C766.364 365.952 766.976 366.114 767.684 366.114C768.512 366.114 769.178 365.862 769.682 365.358C770.198 364.854 770.456 364.122 770.456 363.162V361.506C770.108 361.974 769.634 362.37 769.034 362.694C768.446 363.006 767.774 363.162 767.018 363.162C766.154 363.162 765.362 362.946 764.642 362.514C763.934 362.07 763.37 361.458 762.95 360.678C762.542 359.886 762.338 358.992 762.338 357.996C762.338 357 762.542 356.118 762.95 355.35C763.37 354.582 763.934 353.988 764.642 353.568C765.362 353.136 766.154 352.92 767.018 352.92ZM770.456 358.032C770.456 357.348 770.312 356.754 770.024 356.25C769.748 355.746 769.382 355.362 768.926 355.098C768.47 354.834 767.978 354.702 767.45 354.702C766.922 354.702 766.43 354.834 765.974 355.098C765.518 355.35 765.146 355.728 764.858 356.232C764.582 356.724 764.444 357.312 764.444 357.996C764.444 358.68 764.582 359.28 764.858 359.796C765.146 360.312 765.518 360.708 765.974 360.984C766.442 361.248 766.934 361.38 767.45 361.38C767.978 361.38 768.47 361.248 768.926 360.984C769.382 360.72 769.748 360.336 770.024 359.832C770.312 359.316 770.456 358.716 770.456 358.032ZM780.225 352.92C781.005 352.92 781.701 353.082 782.313 353.406C782.937 353.73 783.423 354.21 783.771 354.846C784.119 355.482 784.293 356.25 784.293 357.15V363H782.259V357.456C782.259 356.568 782.037 355.89 781.593 355.422C781.149 354.942 780.543 354.702 779.775 354.702C779.007 354.702 778.395 354.942 777.939 355.422C777.495 355.89 777.273 356.568 777.273 357.456V363H775.221V353.082H777.273V354.216C777.609 353.808 778.035 353.49 778.551 353.262C779.079 353.034 779.637 352.92 780.225 352.92Z" fill="#333333"/>
<path d="M735.328 296.152C735.648 297.837 736.629 298.68 738.272 298.68C739.403 298.68 740.203 298.179 740.672 297.176C741.141 296.173 741.376 294.541 741.376 292.28C740.907 292.941 740.267 293.453 739.456 293.816C738.645 294.179 737.739 294.36 736.736 294.36C735.371 294.36 734.155 294.083 733.088 293.528C732.021 292.952 731.179 292.109 730.56 291C729.963 289.869 729.664 288.504 729.664 286.904C729.664 285.325 729.984 283.949 730.624 282.776C731.285 281.603 732.213 280.696 733.408 280.056C734.624 279.416 736.053 279.096 737.696 279.096C740.853 279.096 743.061 280.077 744.32 282.04C745.579 284.003 746.208 286.893 746.208 290.712C746.208 293.485 745.952 295.779 745.44 297.592C744.949 299.384 744.107 300.749 742.912 301.688C741.739 302.627 740.128 303.096 738.08 303.096C736.459 303.096 735.072 302.776 733.92 302.136C732.789 301.496 731.915 300.653 731.296 299.608C730.699 298.563 730.357 297.411 730.272 296.152H735.328ZM737.984 290.04C738.88 290.04 739.595 289.773 740.128 289.24C740.661 288.685 740.928 287.939 740.928 287C740.928 285.976 740.651 285.187 740.096 284.632C739.541 284.077 738.795 283.8 737.856 283.8C736.917 283.8 736.171 284.088 735.616 284.664C735.083 285.219 734.816 285.987 734.816 286.968C734.816 287.885 735.083 288.632 735.616 289.208C736.171 289.763 736.96 290.04 737.984 290.04ZM749.128 291C749.128 287.331 749.832 284.44 751.24 282.328C752.669 280.216 754.962 279.16 758.12 279.16C761.277 279.16 763.56 280.216 764.968 282.328C766.397 284.44 767.112 287.331 767.112 291C767.112 294.712 766.397 297.624 764.968 299.736C763.56 301.848 761.277 302.904 758.12 302.904C754.962 302.904 752.669 301.848 751.24 299.736C749.832 297.624 749.128 294.712 749.128 291ZM761.736 291C761.736 288.845 761.501 287.192 761.032 286.04C760.562 284.867 759.592 284.28 758.12 284.28C756.648 284.28 755.677 284.867 755.208 286.04C754.738 287.192 754.504 288.845 754.504 291C754.504 292.451 754.589 293.656 754.76 294.616C754.93 295.555 755.272 296.323 755.784 296.92C756.317 297.496 757.096 297.784 758.12 297.784C759.144 297.784 759.912 297.496 760.424 296.92C760.957 296.323 761.309 295.555 761.48 294.616C761.65 293.656 761.736 292.451 761.736 291ZM771.647 295.406C771.899 295.406 772.107 295.359 772.271 295.266C772.436 295.166 772.564 295.028 772.658 294.853C772.758 294.671 772.825 294.454 772.86 294.202C772.901 293.944 772.922 293.657 772.922 293.341C772.922 293.019 772.901 292.731 772.86 292.479C772.825 292.222 772.758 292.005 772.658 291.829C772.564 291.647 772.436 291.51 772.271 291.416C772.107 291.316 771.899 291.267 771.647 291.267C771.39 291.267 771.179 291.316 771.015 291.416C770.851 291.51 770.719 291.647 770.619 291.829C770.525 292.005 770.458 292.222 770.417 292.479C770.382 292.731 770.364 293.019 770.364 293.341C770.364 293.657 770.382 293.944 770.417 294.202C770.458 294.454 770.525 294.671 770.619 294.853C770.719 295.028 770.851 295.166 771.015 295.266C771.179 295.359 771.39 295.406 771.647 295.406ZM769.292 293.341C769.292 292.339 769.494 291.592 769.898 291.1C770.303 290.607 770.886 290.361 771.647 290.361C772.421 290.361 773.007 290.607 773.405 291.1C773.804 291.592 774.003 292.339 774.003 293.341C774.003 295.321 773.218 296.312 771.647 296.312C770.874 296.312 770.288 296.068 769.89 295.582C769.491 295.09 769.292 294.343 769.292 293.341ZM770.364 303.105L778.081 289.904L779.074 290.493L771.322 303.677L770.364 303.105ZM778.995 300.179C778.995 299.862 778.975 299.575 778.934 299.317C778.898 299.06 778.831 298.843 778.731 298.667C778.638 298.485 778.509 298.348 778.345 298.254C778.181 298.154 777.973 298.104 777.721 298.104C777.463 298.104 777.249 298.154 777.079 298.254C776.915 298.348 776.783 298.485 776.684 298.667C776.59 298.843 776.522 299.06 776.481 299.317C776.446 299.575 776.429 299.862 776.429 300.179C776.429 300.495 776.446 300.782 776.481 301.04C776.522 301.298 776.59 301.518 776.684 301.699C776.783 301.875 776.915 302.013 777.079 302.112C777.249 302.206 777.463 302.253 777.721 302.253C777.973 302.253 778.181 302.206 778.345 302.112C778.509 302.013 778.638 301.875 778.731 301.699C778.831 301.518 778.898 301.298 778.934 301.04C778.975 300.782 778.995 300.495 778.995 300.179ZM775.365 300.179C775.365 299.177 775.562 298.43 775.954 297.938C776.353 297.445 776.941 297.199 777.721 297.199C778.494 297.199 779.08 297.445 779.479 297.938C779.877 298.43 780.076 299.177 780.076 300.179C780.076 302.165 779.291 303.158 777.721 303.158C776.947 303.158 776.361 302.912 775.963 302.42C775.564 301.928 775.365 301.181 775.365 300.179Z" fill="#333333"/>
<path d="M448.712 350.49V352.164H443.402V355.854H447.542V357.528H443.402V363H441.35V350.49H448.712ZM451.658 351.768C451.286 351.768 450.974 351.642 450.722 351.39C450.47 351.138 450.344 350.826 450.344 350.454C450.344 350.082 450.47 349.77 450.722 349.518C450.974 349.266 451.286 349.14 451.658 349.14C452.018 349.14 452.324 349.266 452.576 349.518C452.828 349.77 452.954 350.082 452.954 350.454C452.954 350.826 452.828 351.138 452.576 351.39C452.324 351.642 452.018 351.768 451.658 351.768ZM452.666 353.082V363H450.614V353.082H452.666ZM459.356 352.92C460.124 352.92 460.802 353.076 461.39 353.388C461.99 353.688 462.458 354.066 462.794 354.522V353.082H464.864V363.162C464.864 364.074 464.672 364.884 464.288 365.592C463.904 366.312 463.346 366.876 462.614 367.284C461.894 367.692 461.03 367.896 460.022 367.896C458.678 367.896 457.562 367.578 456.674 366.942C455.786 366.318 455.282 365.466 455.162 364.386H457.196C457.352 364.902 457.682 365.316 458.186 365.628C458.702 365.952 459.314 366.114 460.022 366.114C460.85 366.114 461.516 365.862 462.02 365.358C462.536 364.854 462.794 364.122 462.794 363.162V361.506C462.446 361.974 461.972 362.37 461.372 362.694C460.784 363.006 460.112 363.162 459.356 363.162C458.492 363.162 457.7 362.946 456.98 362.514C456.272 362.07 455.708 361.458 455.288 360.678C454.88 359.886 454.676 358.992 454.676 357.996C454.676 357 454.88 356.118 455.288 355.35C455.708 354.582 456.272 353.988 456.98 353.568C457.7 353.136 458.492 352.92 459.356 352.92ZM462.794 358.032C462.794 357.348 462.65 356.754 462.362 356.25C462.086 355.746 461.72 355.362 461.264 355.098C460.808 354.834 460.316 354.702 459.788 354.702C459.26 354.702 458.768 354.834 458.312 355.098C457.856 355.35 457.484 355.728 457.196 356.232C456.92 356.724 456.782 357.312 456.782 357.996C456.782 358.68 456.92 359.28 457.196 359.796C457.484 360.312 457.856 360.708 458.312 360.984C458.78 361.248 459.272 361.38 459.788 361.38C460.316 361.38 460.808 361.248 461.264 360.984C461.72 360.72 462.086 360.336 462.362 359.832C462.65 359.316 462.794 358.716 462.794 358.032ZM479.565 352.92C480.345 352.92 481.041 353.082 481.653 353.406C482.277 353.73 482.763 354.21 483.111 354.846C483.471 355.482 483.651 356.25 483.651 357.15V363H481.617V357.456C481.617 356.568 481.395 355.89 480.951 355.422C480.507 354.942 479.901 354.702 479.133 354.702C478.365 354.702 477.753 354.942 477.297 355.422C476.853 355.89 476.631 356.568 476.631 357.456V363H474.597V357.456C474.597 356.568 474.375 355.89 473.931 355.422C473.487 354.942 472.881 354.702 472.113 354.702C471.345 354.702 470.733 354.942 470.277 355.422C469.833 355.89 469.611 356.568 469.611 357.456V363H467.559V353.082H469.611V354.216C469.947 353.808 470.373 353.49 470.889 353.262C471.405 353.034 471.957 352.92 472.545 352.92C473.337 352.92 474.045 353.088 474.669 353.424C475.293 353.76 475.773 354.246 476.109 354.882C476.409 354.282 476.877 353.808 477.513 353.46C478.149 353.1 478.833 352.92 479.565 352.92ZM485.578 357.996C485.578 357 485.782 356.118 486.19 355.35C486.61 354.582 487.174 353.988 487.882 353.568C488.602 353.136 489.394 352.92 490.258 352.92C491.038 352.92 491.716 353.076 492.292 353.388C492.88 353.688 493.348 354.066 493.696 354.522V353.082H495.766V363H493.696V361.524C493.348 361.992 492.874 362.382 492.274 362.694C491.674 363.006 490.99 363.162 490.222 363.162C489.37 363.162 488.59 362.946 487.882 362.514C487.174 362.07 486.61 361.458 486.19 360.678C485.782 359.886 485.578 358.992 485.578 357.996ZM493.696 358.032C493.696 357.348 493.552 356.754 493.264 356.25C492.988 355.746 492.622 355.362 492.166 355.098C491.71 354.834 491.218 354.702 490.69 354.702C490.162 354.702 489.67 354.834 489.214 355.098C488.758 355.35 488.386 355.728 488.098 356.232C487.822 356.724 487.684 357.312 487.684 357.996C487.684 358.68 487.822 359.28 488.098 359.796C488.386 360.312 488.758 360.708 489.214 360.984C489.682 361.248 490.174 361.38 490.69 361.38C491.218 361.38 491.71 361.248 492.166 360.984C492.622 360.72 492.988 360.336 493.264 359.832C493.552 359.316 493.696 358.716 493.696 358.032Z" fill="#333333"/>
<path d="M450.328 323.152C450.648 324.837 451.629 325.68 453.272 325.68C454.403 325.68 455.203 325.179 455.672 324.176C456.141 323.173 456.376 321.541 456.376 319.28C455.907 319.941 455.267 320.453 454.456 320.816C453.645 321.179 452.739 321.36 451.736 321.36C450.371 321.36 449.155 321.083 448.088 320.528C447.021 319.952 446.179 319.109 445.56 318C444.963 316.869 444.664 315.504 444.664 313.904C444.664 312.325 444.984 310.949 445.624 309.776C446.285 308.603 447.213 307.696 448.408 307.056C449.624 306.416 451.053 306.096 452.696 306.096C455.853 306.096 458.061 307.077 459.32 309.04C460.579 311.003 461.208 313.893 461.208 317.712C461.208 320.485 460.952 322.779 460.44 324.592C459.949 326.384 459.107 327.749 457.912 328.688C456.739 329.627 455.128 330.096 453.08 330.096C451.459 330.096 450.072 329.776 448.92 329.136C447.789 328.496 446.915 327.653 446.296 326.608C445.699 325.563 445.357 324.411 445.272 323.152H450.328ZM452.984 317.04C453.88 317.04 454.595 316.773 455.128 316.24C455.661 315.685 455.928 314.939 455.928 314C455.928 312.976 455.651 312.187 455.096 311.632C454.541 311.077 453.795 310.8 452.856 310.8C451.917 310.8 451.171 311.088 450.616 311.664C450.083 312.219 449.816 312.987 449.816 313.968C449.816 314.885 450.083 315.632 450.616 316.208C451.171 316.763 451.96 317.04 452.984 317.04ZM480.576 311.408H470.592V315.824C471.018 315.355 471.616 314.971 472.384 314.672C473.152 314.373 473.984 314.224 474.88 314.224C476.48 314.224 477.802 314.587 478.847 315.312C479.914 316.037 480.693 316.976 481.184 318.128C481.674 319.28 481.92 320.528 481.92 321.872C481.92 324.368 481.216 326.352 479.808 327.824C478.4 329.275 476.416 330 473.856 330C472.149 330 470.666 329.712 469.408 329.136C468.149 328.539 467.178 327.717 466.496 326.672C465.813 325.627 465.44 324.421 465.376 323.056H470.72C470.848 323.717 471.157 324.272 471.648 324.72C472.138 325.147 472.81 325.36 473.664 325.36C474.666 325.36 475.413 325.04 475.904 324.4C476.394 323.76 476.64 322.907 476.64 321.84C476.64 320.795 476.384 319.995 475.872 319.44C475.36 318.885 474.613 318.608 473.632 318.608C472.906 318.608 472.309 318.789 471.84 319.152C471.37 319.493 471.061 319.952 470.911 320.528H465.632V306.608H480.576V311.408ZM486.585 322.406C486.837 322.406 487.045 322.359 487.209 322.266C487.373 322.166 487.502 322.028 487.596 321.853C487.695 321.671 487.763 321.454 487.798 321.202C487.839 320.944 487.859 320.657 487.859 320.341C487.859 320.019 487.839 319.731 487.798 319.479C487.763 319.222 487.695 319.005 487.596 318.829C487.502 318.647 487.373 318.51 487.209 318.416C487.045 318.316 486.837 318.267 486.585 318.267C486.327 318.267 486.116 318.316 485.952 318.416C485.788 318.51 485.656 318.647 485.557 318.829C485.463 319.005 485.396 319.222 485.354 319.479C485.319 319.731 485.302 320.019 485.302 320.341C485.302 320.657 485.319 320.944 485.354 321.202C485.396 321.454 485.463 321.671 485.557 321.853C485.656 322.028 485.788 322.166 485.952 322.266C486.116 322.359 486.327 322.406 486.585 322.406ZM484.229 320.341C484.229 319.339 484.432 318.592 484.836 318.1C485.24 317.607 485.823 317.361 486.585 317.361C487.358 317.361 487.944 317.607 488.343 318.1C488.741 318.592 488.94 319.339 488.94 320.341C488.94 322.321 488.155 323.312 486.585 323.312C485.812 323.312 485.226 323.068 484.827 322.582C484.429 322.09 484.229 321.343 484.229 320.341ZM485.302 330.105L493.019 316.904L494.012 317.493L486.26 330.677L485.302 330.105ZM493.933 327.179C493.933 326.862 493.912 326.575 493.871 326.317C493.836 326.06 493.769 325.843 493.669 325.667C493.575 325.485 493.446 325.348 493.282 325.254C493.118 325.154 492.91 325.104 492.658 325.104C492.4 325.104 492.187 325.154 492.017 325.254C491.853 325.348 491.721 325.485 491.621 325.667C491.527 325.843 491.46 326.06 491.419 326.317C491.384 326.575 491.366 326.862 491.366 327.179C491.366 327.495 491.384 327.782 491.419 328.04C491.46 328.298 491.527 328.518 491.621 328.699C491.721 328.875 491.853 329.013 492.017 329.112C492.187 329.206 492.4 329.253 492.658 329.253C492.91 329.253 493.118 329.206 493.282 329.112C493.446 329.013 493.575 328.875 493.669 328.699C493.769 328.518 493.836 328.298 493.871 328.04C493.912 327.782 493.933 327.495 493.933 327.179ZM490.303 327.179C490.303 326.177 490.499 325.43 490.892 324.938C491.29 324.445 491.879 324.199 492.658 324.199C493.432 324.199 494.018 324.445 494.416 324.938C494.814 325.43 495.014 326.177 495.014 327.179C495.014 329.165 494.229 330.158 492.658 330.158C491.885 330.158 491.299 329.912 490.9 329.42C490.502 328.928 490.303 328.181 490.303 327.179Z" fill="#333333"/>
<path d="M851.436 350.49C852.768 350.49 853.932 350.748 854.928 351.264C855.936 351.768 856.71 352.5 857.25 353.46C857.802 354.408 858.078 355.518 858.078 356.79C858.078 358.062 857.802 359.166 857.25 360.102C856.71 361.038 855.936 361.758 854.928 362.262C853.932 362.754 852.768 363 851.436 363H847.35V350.49H851.436ZM851.436 361.326C852.9 361.326 854.022 360.93 854.802 360.138C855.582 359.346 855.972 358.23 855.972 356.79C855.972 355.338 855.582 354.204 854.802 353.388C854.022 352.572 852.9 352.164 851.436 352.164H849.402V361.326H851.436ZM859.428 357.996C859.428 357 859.632 356.118 860.04 355.35C860.46 354.582 861.024 353.988 861.732 353.568C862.452 353.136 863.244 352.92 864.108 352.92C864.888 352.92 865.566 353.076 866.142 353.388C866.73 353.688 867.198 354.066 867.546 354.522V353.082H869.616V363H867.546V361.524C867.198 361.992 866.724 362.382 866.124 362.694C865.524 363.006 864.84 363.162 864.072 363.162C863.22 363.162 862.44 362.946 861.732 362.514C861.024 362.07 860.46 361.458 860.04 360.678C859.632 359.886 859.428 358.992 859.428 357.996ZM867.546 358.032C867.546 357.348 867.402 356.754 867.114 356.25C866.838 355.746 866.472 355.362 866.016 355.098C865.56 354.834 865.068 354.702 864.54 354.702C864.012 354.702 863.52 354.834 863.064 355.098C862.608 355.35 862.236 355.728 861.948 356.232C861.672 356.724 861.534 357.312 861.534 357.996C861.534 358.68 861.672 359.28 861.948 359.796C862.236 360.312 862.608 360.708 863.064 360.984C863.532 361.248 864.024 361.38 864.54 361.38C865.068 361.38 865.56 361.248 866.016 360.984C866.472 360.72 866.838 360.336 867.114 359.832C867.402 359.316 867.546 358.716 867.546 358.032ZM881.239 353.082L875.155 367.662H873.031L875.047 362.838L871.141 353.082H873.427L876.217 360.642L879.115 353.082H881.239ZM891.549 350.49C892.881 350.49 894.045 350.748 895.041 351.264C896.049 351.768 896.823 352.5 897.363 353.46C897.915 354.408 898.191 355.518 898.191 356.79C898.191 358.062 897.915 359.166 897.363 360.102C896.823 361.038 896.049 361.758 895.041 362.262C894.045 362.754 892.881 363 891.549 363H887.463V350.49H891.549ZM891.549 361.326C893.013 361.326 894.135 360.93 894.915 360.138C895.695 359.346 896.085 358.23 896.085 356.79C896.085 355.338 895.695 354.204 894.915 353.388C894.135 352.572 893.013 352.164 891.549 352.164H889.515V361.326H891.549ZM909.315 357.798C909.315 358.17 909.291 358.506 909.243 358.806H901.665C901.725 359.598 902.019 360.234 902.547 360.714C903.075 361.194 903.723 361.434 904.491 361.434C905.595 361.434 906.375 360.972 906.831 360.048H909.045C908.745 360.96 908.199 361.71 907.407 362.298C906.627 362.874 905.655 363.162 904.491 363.162C903.543 363.162 902.691 362.952 901.935 362.532C901.191 362.1 900.603 361.5 900.171 360.732C899.751 359.952 899.541 359.052 899.541 358.032C899.541 357.012 899.745 356.118 900.153 355.35C900.573 354.57 901.155 353.97 901.899 353.55C902.655 353.13 903.519 352.92 904.491 352.92C905.427 352.92 906.261 353.124 906.993 353.532C907.725 353.94 908.295 354.516 908.703 355.26C909.111 355.992 909.315 356.838 909.315 357.798ZM907.173 357.15C907.161 356.394 906.891 355.788 906.363 355.332C905.835 354.876 905.181 354.648 904.401 354.648C903.693 354.648 903.087 354.876 902.583 355.332C902.079 355.776 901.779 356.382 901.683 357.15H907.173ZM914.934 363.162C914.154 363.162 913.452 363.024 912.828 362.748C912.216 362.46 911.73 362.076 911.37 361.596C911.01 361.104 910.818 360.558 910.794 359.958H912.918C912.954 360.378 913.152 360.732 913.512 361.02C913.884 361.296 914.346 361.434 914.898 361.434C915.474 361.434 915.918 361.326 916.23 361.11C916.554 360.882 916.716 360.594 916.716 360.246C916.716 359.874 916.536 359.598 916.176 359.418C915.828 359.238 915.27 359.04 914.502 358.824C913.758 358.62 913.152 358.422 912.684 358.23C912.216 358.038 911.808 357.744 911.46 357.348C911.124 356.952 910.956 356.43 910.956 355.782C910.956 355.254 911.112 354.774 911.424 354.342C911.736 353.898 912.18 353.55 912.756 353.298C913.344 353.046 914.016 352.92 914.772 352.92C915.9 352.92 916.806 353.208 917.49 353.784C918.186 354.348 918.558 355.122 918.606 356.106H916.554C916.518 355.662 916.338 355.308 916.014 355.044C915.69 354.78 915.252 354.648 914.7 354.648C914.16 354.648 913.746 354.75 913.458 354.954C913.17 355.158 913.026 355.428 913.026 355.764C913.026 356.028 913.122 356.25 913.314 356.43C913.506 356.61 913.74 356.754 914.016 356.862C914.292 356.958 914.7 357.084 915.24 357.24C915.96 357.432 916.548 357.63 917.004 357.834C917.472 358.026 917.874 358.314 918.21 358.698C918.546 359.082 918.72 359.592 918.732 360.228C918.732 360.792 918.576 361.296 918.264 361.74C917.952 362.184 917.508 362.532 916.932 362.784C916.368 363.036 915.702 363.162 914.934 363.162ZM921.994 351.768C921.622 351.768 921.31 351.642 921.058 351.39C920.806 351.138 920.68 350.826 920.68 350.454C920.68 350.082 920.806 349.77 921.058 349.518C921.31 349.266 921.622 349.14 921.994 349.14C922.354 349.14 922.66 349.266 922.912 349.518C923.164 349.77 923.29 350.082 923.29 350.454C923.29 350.826 923.164 351.138 922.912 351.39C922.66 351.642 922.354 351.768 921.994 351.768ZM923.002 353.082V363H920.95V353.082H923.002ZM929.692 352.92C930.46 352.92 931.138 353.076 931.726 353.388C932.326 353.688 932.794 354.066 933.13 354.522V353.082H935.2V363.162C935.2 364.074 935.008 364.884 934.624 365.592C934.24 366.312 933.682 366.876 932.95 367.284C932.23 367.692 931.366 367.896 930.358 367.896C929.014 367.896 927.898 367.578 927.01 366.942C926.122 366.318 925.618 365.466 925.498 364.386H927.532C927.688 364.902 928.018 365.316 928.522 365.628C929.038 365.952 929.65 366.114 930.358 366.114C931.186 366.114 931.852 365.862 932.356 365.358C932.872 364.854 933.13 364.122 933.13 363.162V361.506C932.782 361.974 932.308 362.37 931.708 362.694C931.12 363.006 930.448 363.162 929.692 363.162C928.828 363.162 928.036 362.946 927.316 362.514C926.608 362.07 926.044 361.458 925.624 360.678C925.216 359.886 925.012 358.992 925.012 357.996C925.012 357 925.216 356.118 925.624 355.35C926.044 354.582 926.608 353.988 927.316 353.568C928.036 353.136 928.828 352.92 929.692 352.92ZM933.13 358.032C933.13 357.348 932.986 356.754 932.698 356.25C932.422 355.746 932.056 355.362 931.6 355.098C931.144 354.834 930.652 354.702 930.124 354.702C929.596 354.702 929.104 354.834 928.648 355.098C928.192 355.35 927.82 355.728 927.532 356.232C927.256 356.724 927.118 357.312 927.118 357.996C927.118 358.68 927.256 359.28 927.532 359.796C927.82 360.312 928.192 360.708 928.648 360.984C929.116 361.248 929.608 361.38 930.124 361.38C930.652 361.38 931.144 361.248 931.6 360.984C932.056 360.72 932.422 360.336 932.698 359.832C932.986 359.316 933.13 358.716 933.13 358.032ZM942.899 352.92C943.679 352.92 944.375 353.082 944.987 353.406C945.611 353.73 946.097 354.21 946.445 354.846C946.793 355.482 946.967 356.25 946.967 357.15V363H944.933V357.456C944.933 356.568 944.711 355.89 944.267 355.422C943.823 354.942 943.217 354.702 942.449 354.702C941.681 354.702 941.069 354.942 940.613 355.422C940.169 355.89 939.947 356.568 939.947 357.456V363H937.895V353.082H939.947V354.216C940.283 353.808 940.709 353.49 941.225 353.262C941.753 353.034 942.311 352.92 942.899 352.92Z" fill="#333333"/>
<path d="M871.568 325.84V321.424L881.68 306.96H887.792V321.104H890.416V325.84H887.792V330H882.32V325.84H871.568ZM882.704 312.976L877.328 321.104H882.704V312.976ZM893.096 318C893.096 314.331 893.8 311.44 895.208 309.328C896.638 307.216 898.931 306.16 902.088 306.16C905.246 306.16 907.528 307.216 908.936 309.328C910.366 311.44 911.08 314.331 911.08 318C911.08 321.712 910.366 324.624 908.936 326.736C907.528 328.848 905.246 329.904 902.088 329.904C898.931 329.904 896.638 328.848 895.208 326.736C893.8 324.624 893.096 321.712 893.096 318ZM905.704 318C905.704 315.845 905.47 314.192 905 313.04C904.531 311.867 903.56 311.28 902.088 311.28C900.616 311.28 899.646 311.867 899.176 313.04C898.707 314.192 898.472 315.845 898.472 318C898.472 319.451 898.558 320.656 898.728 321.616C898.899 322.555 899.24 323.323 899.752 323.92C900.286 324.496 901.064 324.784 902.088 324.784C903.112 324.784 903.88 324.496 904.392 323.92C904.926 323.323 905.278 322.555 905.448 321.616C905.619 320.656 905.704 319.451 905.704 318ZM915.616 322.406C915.868 322.406 916.076 322.359 916.24 322.266C916.404 322.166 916.533 322.028 916.627 321.853C916.727 321.671 916.794 321.454 916.829 321.202C916.87 320.944 916.891 320.657 916.891 320.341C916.891 320.019 916.87 319.731 916.829 319.479C916.794 319.222 916.727 319.005 916.627 318.829C916.533 318.647 916.404 318.51 916.24 318.416C916.076 318.316 915.868 318.267 915.616 318.267C915.358 318.267 915.147 318.316 914.983 318.416C914.819 318.51 914.688 318.647 914.588 318.829C914.494 319.005 914.427 319.222 914.386 319.479C914.351 319.731 914.333 320.019 914.333 320.341C914.333 320.657 914.351 320.944 914.386 321.202C914.427 321.454 914.494 321.671 914.588 321.853C914.688 322.028 914.819 322.166 914.983 322.266C915.147 322.359 915.358 322.406 915.616 322.406ZM913.261 320.341C913.261 319.339 913.463 318.592 913.867 318.1C914.271 317.607 914.854 317.361 915.616 317.361C916.39 317.361 916.976 317.607 917.374 318.1C917.772 318.592 917.972 319.339 917.972 320.341C917.972 322.321 917.187 323.312 915.616 323.312C914.843 323.312 914.257 323.068 913.858 322.582C913.46 322.09 913.261 321.343 913.261 320.341ZM914.333 330.105L922.05 316.904L923.043 317.493L915.291 330.677L914.333 330.105ZM922.964 327.179C922.964 326.862 922.943 326.575 922.902 326.317C922.867 326.06 922.8 325.843 922.7 325.667C922.606 325.485 922.478 325.348 922.313 325.254C922.149 325.154 921.941 325.104 921.689 325.104C921.432 325.104 921.218 325.154 921.048 325.254C920.884 325.348 920.752 325.485 920.652 325.667C920.559 325.843 920.491 326.06 920.45 326.317C920.415 326.575 920.397 326.862 920.397 327.179C920.397 327.495 920.415 327.782 920.45 328.04C920.491 328.298 920.559 328.518 920.652 328.699C920.752 328.875 920.884 329.013 921.048 329.112C921.218 329.206 921.432 329.253 921.689 329.253C921.941 329.253 922.149 329.206 922.313 329.112C922.478 329.013 922.606 328.875 922.7 328.699C922.8 328.518 922.867 328.298 922.902 328.04C922.943 327.782 922.964 327.495 922.964 327.179ZM919.334 327.179C919.334 326.177 919.53 325.43 919.923 324.938C920.321 324.445 920.91 324.199 921.689 324.199C922.463 324.199 923.049 324.445 923.447 324.938C923.846 325.43 924.045 326.177 924.045 327.179C924.045 329.165 923.26 330.158 921.689 330.158C920.916 330.158 920.33 329.912 919.932 329.42C919.533 328.928 919.334 328.181 919.334 327.179Z" fill="#333333"/>
<path d="M866.021 9.35352H869.768L874.156 23.8047L875.086 26.9629L875.934 23.8047L880.336 9.35352H884.082L884.807 29H882.305L881.881 15.4922L881.867 11.5547L880.705 16.1348L876.672 28.5625H873.432L869.398 16.1348L868.25 11.5547L868.209 15.5059L867.662 29H865.146L866.021 9.35352ZM893.584 27.1406L896.961 14.9043H899.641L894.814 29.8203C894.55 30.6315 894.304 31.3516 894.076 31.9805C893.857 32.6094 893.611 33.138 893.338 33.5664C893.074 33.9948 892.764 34.3184 892.408 34.5371C892.062 34.7559 891.633 34.8652 891.123 34.8652C890.558 34.8652 890.043 34.8105 889.578 34.7012C889.113 34.5918 888.712 34.4688 888.375 34.332C887.983 34.1771 887.628 33.9993 887.309 33.7988L887.486 32.0762C887.851 32.222 888.215 32.3451 888.58 32.4453C888.899 32.5365 889.241 32.6185 889.605 32.6914C889.979 32.7643 890.339 32.8008 890.686 32.8008C890.886 32.8008 891.055 32.7598 891.191 32.6777C891.328 32.6048 891.442 32.4954 891.533 32.3496C891.633 32.2129 891.715 32.0397 891.779 31.8301C891.852 31.6204 891.925 31.3789 891.998 31.1055L892.326 29.6426L887.459 14.9043H890.18L893.584 27.1406ZM908.678 14.084C908.678 13.2546 908.833 12.5254 909.143 11.8965C909.462 11.2585 909.904 10.7253 910.469 10.2969C911.034 9.85938 911.704 9.53125 912.479 9.3125C913.253 9.09375 914.105 8.98438 915.035 8.98438C915.746 8.98438 916.411 9.02539 917.031 9.10742C917.651 9.18945 918.193 9.2806 918.658 9.38086C919.205 9.49023 919.706 9.61328 920.162 9.75L920.449 11.9238C919.984 11.7598 919.474 11.6094 918.918 11.4727C918.435 11.3633 917.874 11.2676 917.236 11.1855C916.607 11.0944 915.924 11.0443 915.186 11.0352C914.584 11.0352 914.028 11.099 913.518 11.2266C913.016 11.3451 912.579 11.5365 912.205 11.8008C911.84 12.0651 911.553 12.3978 911.344 12.7988C911.143 13.1999 911.043 13.6602 911.043 14.1797C911.043 14.6354 911.107 15.0182 911.234 15.3281C911.371 15.6289 911.604 15.9069 911.932 16.1621C912.269 16.4173 912.715 16.6634 913.271 16.9004C913.827 17.1283 914.529 17.3652 915.377 17.6113C916.389 17.9486 917.268 18.2585 918.016 18.541C918.763 18.8236 919.383 19.179 919.875 19.6074C920.376 20.0267 920.75 20.5599 920.996 21.207C921.242 21.8542 921.365 22.679 921.365 23.6816C921.365 24.5384 921.242 25.3177 920.996 26.0195C920.75 26.7214 920.358 27.3184 919.82 27.8105C919.283 28.3027 918.59 28.681 917.742 28.9453C916.895 29.2005 915.865 29.3281 914.652 29.3281C913.814 29.3281 913.066 29.2734 912.41 29.1641C911.763 29.0547 911.207 28.9316 910.742 28.7949C910.204 28.6309 909.73 28.4486 909.32 28.248L908.965 26.0879C909.448 26.3158 909.977 26.5117 910.551 26.6758C911.043 26.849 911.617 26.9902 912.273 27.0996C912.939 27.209 913.65 27.2637 914.406 27.2637C915.09 27.2637 915.701 27.2135 916.238 27.1133C916.785 27.013 917.25 26.8353 917.633 26.5801C918.016 26.3158 918.307 25.9694 918.508 25.541C918.717 25.1126 918.822 24.5794 918.822 23.9414C918.822 23.3125 918.754 22.7975 918.617 22.3965C918.48 21.9954 918.234 21.64 917.879 21.3301C917.523 21.0111 917.036 20.7285 916.416 20.4824C915.805 20.2363 915.021 19.9583 914.064 19.6484C913.107 19.3659 912.287 19.0651 911.604 18.7461C910.929 18.4271 910.373 18.0534 909.936 17.625C909.498 17.1875 909.179 16.6816 908.979 16.1074C908.778 15.5241 908.678 14.8496 908.678 14.084ZM936.705 29H934.162L928.666 22.752L927.354 23.9004V29H924.824V9.59961L927.354 9.35352V21.3438L933.711 14.9043H936.322V15.3691L930.307 21.4805L936.705 28.5215V29ZM939.234 29V14.9043H941.75V29H939.234ZM941.805 9.75V12.2383H939.166V9.75H941.805ZM946.07 9.59961L948.586 9.35352V29H946.07V9.59961ZM952.906 9.59961L955.422 9.35352V29H952.906V9.59961ZM958.977 18.377C958.986 17.7116 959.113 17.151 959.359 16.6953C959.605 16.2396 959.947 15.8659 960.385 15.5742C960.822 15.2734 961.346 15.0592 961.957 14.9316C962.568 14.7949 963.251 14.7311 964.008 14.7402C964.582 14.7493 965.102 14.7858 965.566 14.8496C966.04 14.9043 966.451 14.9681 966.797 15.041C967.198 15.1322 967.558 15.2324 967.877 15.3418L968.15 17.2695C967.822 17.1693 967.462 17.0781 967.07 16.9961C966.733 16.9232 966.332 16.8594 965.867 16.8047C965.411 16.7409 964.91 16.7044 964.363 16.6953C963.88 16.6953 963.447 16.7181 963.064 16.7637C962.691 16.8092 962.372 16.8958 962.107 17.0234C961.852 17.1419 961.656 17.3105 961.52 17.5293C961.383 17.748 961.314 18.0443 961.314 18.418C961.314 18.7552 961.36 19.0286 961.451 19.2383C961.542 19.4388 961.711 19.6257 961.957 19.7988C962.212 19.9629 962.559 20.1178 962.996 20.2637C963.434 20.4095 963.994 20.569 964.678 20.7422C965.471 20.9518 966.145 21.1797 966.701 21.4258C967.257 21.6628 967.708 21.9544 968.055 22.3008C968.41 22.638 968.665 23.0482 968.82 23.5312C968.984 24.0052 969.062 24.543 969.053 25.1445C969.044 25.7552 968.934 26.3112 968.725 26.8125C968.524 27.3138 968.21 27.7467 967.781 28.1113C967.362 28.4668 966.829 28.7448 966.182 28.9453C965.535 29.1458 964.764 29.2461 963.871 29.2461C963.124 29.2461 962.472 29.2051 961.916 29.123C961.369 29.041 960.904 28.9499 960.521 28.8496C960.084 28.7402 959.706 28.6081 959.387 28.4531L959.127 26.5117C959.51 26.6576 959.938 26.7852 960.412 26.8945C960.822 26.9948 961.301 27.0859 961.848 27.168C962.404 27.25 963.01 27.2956 963.666 27.3047C964.678 27.3138 965.43 27.1589 965.922 26.8398C966.414 26.5117 966.665 25.9648 966.674 25.1992C966.674 24.9076 966.633 24.6296 966.551 24.3652C966.469 24.1009 966.3 23.873 966.045 23.6816C965.799 23.4811 965.443 23.2988 964.979 23.1348C964.523 22.9707 963.926 22.7975 963.188 22.6152C962.522 22.4512 961.925 22.2598 961.396 22.041C960.868 21.8223 960.421 21.5534 960.057 21.2344C959.692 20.9154 959.414 20.528 959.223 20.0723C959.04 19.6074 958.958 19.0423 958.977 18.377Z" fill="#333333"/>
<line x1="-4.37114e-08" y1="381.5" x2="1136" y2="381.5" stroke="#D0D0D0"/>
</svg>
